<svg width="360" height="800" viewBox="0 0 360 800" fill="none" xmlns="http://www.w3.org/2000/svg">
<g clip-path="url(#clip0_17_2121)">
<rect width="360" height="800" fill="white"/>
<ellipse cx="244.329" cy="492.259" rx="105.884" ry="82.6564" fill="#B897FF"/>
<ellipse cx="98.0059" cy="647.521" rx="129.795" ry="140.71" fill="#FF9191"/>
<ellipse cx="227.801" cy="614.641" rx="114.932" ry="122.382" fill="#BDB840" fill-opacity="0.761121"/>
<ellipse cx="62.1653" cy="370.092" rx="146.166" ry="144.617" fill="#E34EA7"/>
<ellipse cx="208.331" cy="306.622" rx="151.669" ry="143.845" fill="#4EADE3"/>
<ellipse cx="93.1157" cy="120.014" rx="127.607" ry="120.014" fill="#8951FF"/>
<ellipse cx="281.778" cy="105.462" rx="107.968" ry="120.014" fill="#E34EA7"/>
<g filter="url(#filter0_b_17_2121)">
<rect width="360" height="819.204" fill="white" fill-opacity="0.43"/>
</g>
<g filter="url(#filter1_d_17_2121)">
<rect x="25.0532" y="162.777" width="309.873" height="40" rx="20" fill="white"/>
</g>
<path d="M64.431 184.817V185.777H59.439V178.253H64.323V179.177H60.459V181.481H63.879V182.381H60.459V184.817H64.431ZM66.6323 185.777H65.6483V179.849H66.5483L66.5963 180.305H66.6323C66.9843 180.105 67.3043 179.961 67.5923 179.873C67.8803 179.777 68.1683 179.729 68.4563 179.729C68.7923 179.729 69.0803 179.781 69.3203 179.885C69.5603 179.989 69.7483 180.145 69.8843 180.353H69.9203C70.2403 180.153 70.5763 180.001 70.9283 179.897C71.2883 179.785 71.6483 179.729 72.0083 179.729C72.5763 179.729 73.0043 179.881 73.2923 180.185C73.5883 180.481 73.7363 180.921 73.7363 181.505V185.777H72.7523V181.625C72.7523 181.281 72.6603 181.029 72.4763 180.869C72.2923 180.701 72.0003 180.617 71.6003 180.617C71.3763 180.617 71.1403 180.653 70.8923 180.725C70.6443 180.789 70.3963 180.885 70.1483 181.013C70.1643 181.093 70.1723 181.173 70.1723 181.253C70.1803 181.333 70.1843 181.417 70.1843 181.505V185.777H69.2003V181.625C69.2003 181.281 69.1083 181.029 68.9243 180.869C68.7403 180.701 68.4483 180.617 68.0483 180.617C67.8483 180.617 67.6363 180.653 67.4123 180.725C67.1883 180.789 66.9283 180.901 66.6323 181.061V185.777ZM76.6134 185.873C76.0054 185.873 75.5574 185.729 75.2694 185.441C74.9894 185.145 74.8494 184.681 74.8494 184.049C74.8494 183.409 75.0214 182.957 75.3654 182.693C75.7094 182.421 76.2934 182.285 77.1174 182.285C77.3894 182.285 77.6574 182.297 77.9214 182.321C78.1854 182.345 78.4334 182.381 78.6654 182.429V181.853C78.6654 181.413 78.5534 181.097 78.3294 180.905C78.1054 180.713 77.7454 180.617 77.2494 180.617C76.8814 180.617 76.5574 180.633 76.2774 180.665C75.9974 180.689 75.7174 180.733 75.4374 180.797V179.945C75.7574 179.865 76.0814 179.809 76.4094 179.777C76.7454 179.745 77.1254 179.729 77.5494 179.729C78.2614 179.729 78.7894 179.897 79.1334 180.233C79.4774 180.561 79.6494 181.073 79.6494 181.769V185.777H78.7494L78.7014 185.225H78.6774C78.4374 185.417 78.1254 185.573 77.7414 185.693C77.3654 185.813 76.9894 185.873 76.6134 185.873ZM77.2254 183.089C76.6814 183.089 76.3014 183.157 76.0854 183.293C75.8774 183.421 75.7734 183.653 75.7734 183.989C75.7734 184.341 75.8614 184.597 76.0374 184.757C76.2134 184.909 76.5014 184.985 76.9014 184.985C77.2134 184.985 77.5334 184.937 77.8614 184.841C78.1894 184.745 78.4574 184.625 78.6654 184.481V183.209C78.4014 183.169 78.1534 183.141 77.9214 183.125C77.6974 183.101 77.4654 183.089 77.2254 183.089ZM82.2073 178.817H81.1513V177.797H82.2073V178.817ZM82.1713 185.777H81.1873V179.849H82.1713V185.777ZM84.7377 177.797V185.777H83.7537V177.797H84.7377Z" fill="#D0D0D0"/>
<path d="M51.231 186.277H42.2315C42.2558 184.063 44.0576 182.277 46.2767 182.277H47.1857C49.4048 182.277 51.2066 184.063 51.231 186.277Z" stroke="#D9D9D9"/>
<path d="M48.504 179.277C48.504 180.427 47.6665 181.277 46.7312 181.277C45.796 181.277 44.9585 180.427 44.9585 179.277C44.9585 178.126 45.796 177.277 46.7312 177.277C47.6665 177.277 48.504 178.126 48.504 179.277Z" stroke="#D9D9D9"/>
<path d="M63.6338 244.705V245.629H61.1378V252.229H60.1178V245.629H57.6218V244.705H63.6338ZM67.9944 251.077V251.905C67.7864 252.017 67.4784 252.117 67.0704 252.205C66.6704 252.285 66.2624 252.325 65.8464 252.325C64.9184 252.325 64.2544 252.085 63.8544 251.605C63.4544 251.125 63.2544 250.333 63.2544 249.229C63.2544 248.165 63.4624 247.393 63.8784 246.913C64.2944 246.425 64.9584 246.181 65.8704 246.181C66.7184 246.181 67.3264 246.373 67.6944 246.757C68.0624 247.133 68.2464 247.765 68.2464 248.653C68.2464 248.813 68.2424 248.961 68.2344 249.097C68.2264 249.233 68.2104 249.397 68.1864 249.589H64.2504C64.2584 250.245 64.3904 250.713 64.6464 250.993C64.9104 251.273 65.3624 251.413 66.0024 251.413C66.3464 251.413 66.7064 251.381 67.0824 251.317C67.4584 251.253 67.7624 251.173 67.9944 251.077ZM67.3464 248.521C67.3384 247.993 67.2224 247.621 66.9984 247.405C66.7744 247.181 66.3984 247.069 65.8704 247.069C65.2784 247.069 64.8584 247.197 64.6104 247.453C64.3704 247.701 64.2504 248.141 64.2504 248.773H67.3344C67.3344 248.757 67.3344 248.721 67.3344 248.665C67.3424 248.601 67.3464 248.553 67.3464 248.521ZM70.503 244.249V252.229H69.519V244.249H70.503ZM76.5374 251.077V251.905C76.3294 252.017 76.0214 252.117 75.6134 252.205C75.2134 252.285 74.8054 252.325 74.3894 252.325C73.4614 252.325 72.7974 252.085 72.3974 251.605C71.9974 251.125 71.7974 250.333 71.7974 249.229C71.7974 248.165 72.0054 247.393 72.4214 246.913C72.8374 246.425 73.5014 246.181 74.4134 246.181C75.2614 246.181 75.8694 246.373 76.2374 246.757C76.6054 247.133 76.7894 247.765 76.7894 248.653C76.7894 248.813 76.7854 248.961 76.7774 249.097C76.7694 249.233 76.7534 249.397 76.7294 249.589H72.7934C72.8014 250.245 72.9334 250.713 73.1894 250.993C73.4534 251.273 73.9054 251.413 74.5454 251.413C74.8894 251.413 75.2494 251.381 75.6254 251.317C76.0014 251.253 76.3054 251.173 76.5374 251.077ZM75.8894 248.521C75.8814 247.993 75.7654 247.621 75.5414 247.405C75.3174 247.181 74.9414 247.069 74.4134 247.069C73.8214 247.069 73.4014 247.197 73.1534 247.453C72.9134 247.701 72.7934 248.141 72.7934 248.773H75.8774C75.8774 248.757 75.8774 248.721 75.8774 248.665C75.8854 248.601 75.8894 248.553 75.8894 248.521ZM78.3514 247.141H77.4634V246.301H78.3514V246.157C78.3514 245.469 78.5194 244.961 78.8554 244.633C79.1914 244.297 79.7074 244.129 80.4034 244.129C80.5794 244.129 80.7554 244.137 80.9314 244.153C81.1074 244.169 81.2714 244.193 81.4234 244.225V245.065C81.3274 245.041 81.1954 245.025 81.0274 245.017C80.8674 245.001 80.7074 244.993 80.5474 244.993C80.0914 244.993 79.7754 245.077 79.5994 245.245C79.4234 245.405 79.3354 245.701 79.3354 246.133V246.301H81.2434V247.141H79.3354V252.229H78.3514V247.141ZM87.2309 249.253C87.2309 250.373 87.0229 251.165 86.6069 251.629C86.1989 252.093 85.4949 252.325 84.4949 252.325C83.4629 252.325 82.7469 252.101 82.3469 251.653C81.9469 251.205 81.7469 250.405 81.7469 249.253C81.7469 248.125 81.9509 247.333 82.3589 246.877C82.7749 246.413 83.4869 246.181 84.4949 246.181C85.5269 246.181 86.2389 246.405 86.6309 246.853C87.0309 247.301 87.2309 248.101 87.2309 249.253ZM82.7309 249.241C82.7309 250.121 82.8469 250.705 83.0789 250.993C83.3109 251.273 83.7829 251.413 84.4949 251.413C85.1829 251.413 85.6469 251.265 85.8869 250.969C86.1269 250.665 86.2469 250.089 86.2469 249.241C86.2469 248.361 86.1309 247.781 85.8989 247.501C85.6749 247.213 85.2069 247.069 84.4949 247.069C83.7989 247.069 83.3309 247.217 83.0909 247.513C82.8509 247.809 82.7309 248.385 82.7309 249.241ZM89.5225 252.229H88.5385V246.301H89.3905L89.4385 246.877H89.4745C89.7945 246.637 90.1265 246.461 90.4705 246.349C90.8225 246.237 91.2145 246.181 91.6465 246.181C92.3025 246.181 92.7985 246.345 93.1345 246.673C93.4785 247.001 93.6505 247.485 93.6505 248.125V252.229H92.6665V248.245C92.6665 247.845 92.5545 247.549 92.3305 247.357C92.1065 247.165 91.7625 247.069 91.2985 247.069C91.0105 247.069 90.7145 247.117 90.4105 247.213C90.1145 247.301 89.8185 247.433 89.5225 247.609V252.229ZM99.6351 251.077V251.905C99.4271 252.017 99.1191 252.117 98.7111 252.205C98.3111 252.285 97.9031 252.325 97.4871 252.325C96.5591 252.325 95.8951 252.085 95.4951 251.605C95.0951 251.125 94.8951 250.333 94.8951 249.229C94.8951 248.165 95.1031 247.393 95.5191 246.913C95.9351 246.425 96.5991 246.181 97.5111 246.181C98.3591 246.181 98.9671 246.373 99.3351 246.757C99.7031 247.133 99.8871 247.765 99.8871 248.653C99.8871 248.813 99.8831 248.961 99.8751 249.097C99.8671 249.233 99.8511 249.397 99.8271 249.589H95.8911C95.8991 250.245 96.0311 250.713 96.2871 250.993C96.5511 251.273 97.0031 251.413 97.6431 251.413C97.9871 251.413 98.3471 251.381 98.7231 251.317C99.0991 251.253 99.4031 251.173 99.6351 251.077ZM98.9871 248.521C98.9791 247.993 98.8631 247.621 98.6391 247.405C98.4151 247.181 98.0391 247.069 97.5111 247.069C96.9191 247.069 96.4991 247.197 96.2511 247.453C96.0111 247.701 95.8911 248.141 95.8911 248.773H98.9751C98.9751 248.757 98.9751 248.721 98.9751 248.665C98.9831 248.601 98.9871 248.553 98.9871 248.521Z" fill="#D0D0D0"/>
<g filter="url(#filter2_d_17_2121)">
<rect x="25.2401" y="282.015" width="309.873" height="40" rx="20" fill="white"/>
</g>
<path d="M52.6428 304.245C52.6428 304.442 52.5991 304.644 52.5062 304.841C52.4133 305.038 52.2931 305.223 52.1347 305.398C51.8669 305.693 51.5719 305.906 51.2386 306.043C50.9107 306.18 50.5556 306.251 50.1731 306.251C49.6158 306.251 49.0202 306.119 48.3918 305.852C47.7635 305.584 47.1351 305.223 46.5122 304.77C45.8773 304.305 45.2783 303.794 44.72 303.24C44.1675 302.684 43.6579 302.086 43.1956 301.453C42.7475 300.83 42.3869 300.207 42.1246 299.59C41.8623 298.967 41.7312 298.372 41.7312 297.803C41.7312 297.432 41.7968 297.077 41.9279 296.749C42.059 296.415 42.2667 296.109 42.5563 295.836C42.906 295.492 43.2884 295.323 43.6928 295.323C43.8458 295.323 43.9988 295.355 44.1354 295.421C44.2774 295.487 44.4031 295.585 44.5015 295.727L45.7691 297.514C45.8675 297.65 45.9385 297.776 45.9877 297.896C46.0368 298.011 46.0642 298.126 46.0642 298.229C46.0642 298.361 46.0259 298.492 45.9494 298.617C45.8784 298.743 45.7746 298.874 45.6434 299.005L45.2282 299.437C45.1681 299.497 45.1407 299.568 45.1407 299.656C45.1407 299.699 45.1462 299.738 45.1571 299.781C45.1735 299.825 45.1899 299.858 45.2008 299.891C45.2992 300.071 45.4686 300.306 45.709 300.59C45.9549 300.874 46.2172 301.164 46.5013 301.453C46.7963 301.743 47.0805 302.011 47.3701 302.256C47.6542 302.497 47.8891 302.661 48.0749 302.759C48.1022 302.77 48.135 302.786 48.1733 302.803C48.217 302.819 48.2607 302.825 48.3099 302.825C48.4028 302.825 48.4738 302.792 48.5339 302.732L48.9492 302.322C49.0858 302.185 49.2169 302.082 49.3426 302.016C49.4682 301.94 49.5939 301.901 49.7305 301.901C49.8343 301.901 49.9436 301.923 50.0638 301.972C50.184 302.021 50.3097 302.093 50.4463 302.185L52.2549 303.469C52.3969 303.568 52.4953 303.683 52.5554 303.819C52.61 303.956 52.6428 304.092 52.6428 304.245Z" stroke="#D9D9D9" stroke-miterlimit="10"/>
<path d="M64.6008 297.872V298.796H62.1048V305.396H61.0848V298.796H58.5888V297.872H64.6008ZM68.9614 304.244V305.072C68.7534 305.184 68.4454 305.284 68.0374 305.372C67.6374 305.452 67.2294 305.492 66.8134 305.492C65.8854 305.492 65.2214 305.252 64.8214 304.772C64.4214 304.292 64.2214 303.5 64.2214 302.396C64.2214 301.332 64.4294 300.56 64.8454 300.08C65.2614 299.592 65.9254 299.348 66.8374 299.348C67.6854 299.348 68.2934 299.54 68.6614 299.924C69.0294 300.3 69.2134 300.932 69.2134 301.82C69.2134 301.98 69.2094 302.128 69.2014 302.264C69.1934 302.4 69.1774 302.564 69.1534 302.756H65.2174C65.2254 303.412 65.3574 303.88 65.6134 304.16C65.8774 304.44 66.3294 304.58 66.9694 304.58C67.3134 304.58 67.6734 304.548 68.0494 304.484C68.4254 304.42 68.7294 304.34 68.9614 304.244ZM68.3134 301.688C68.3054 301.16 68.1894 300.788 67.9654 300.572C67.7414 300.348 67.3654 300.236 66.8374 300.236C66.2454 300.236 65.8254 300.364 65.5774 300.62C65.3374 300.868 65.2174 301.308 65.2174 301.94H68.3014C68.3014 301.924 68.3014 301.888 68.3014 301.832C68.3094 301.768 68.3134 301.72 68.3134 301.688ZM71.47 297.416V305.396H70.486V297.416H71.47ZM77.5044 304.244V305.072C77.2964 305.184 76.9884 305.284 76.5804 305.372C76.1804 305.452 75.7724 305.492 75.3564 305.492C74.4284 305.492 73.7644 305.252 73.3644 304.772C72.9644 304.292 72.7644 303.5 72.7644 302.396C72.7644 301.332 72.9724 300.56 73.3884 300.08C73.8044 299.592 74.4684 299.348 75.3804 299.348C76.2284 299.348 76.8364 299.54 77.2044 299.924C77.5724 300.3 77.7564 300.932 77.7564 301.82C77.7564 301.98 77.7524 302.128 77.7444 302.264C77.7364 302.4 77.7204 302.564 77.6964 302.756H73.7604C73.7684 303.412 73.9004 303.88 74.1564 304.16C74.4204 304.44 74.8724 304.58 75.5124 304.58C75.8564 304.58 76.2164 304.548 76.5924 304.484C76.9684 304.42 77.2724 304.34 77.5044 304.244ZM76.8564 301.688C76.8484 301.16 76.7324 300.788 76.5084 300.572C76.2844 300.348 75.9084 300.236 75.3804 300.236C74.7884 300.236 74.3684 300.364 74.1204 300.62C73.8804 300.868 73.7604 301.308 73.7604 301.94H76.8444C76.8444 301.924 76.8444 301.888 76.8444 301.832C76.8524 301.768 76.8564 301.72 76.8564 301.688ZM79.3183 300.308H78.4303V299.468H79.3183V299.324C79.3183 298.636 79.4863 298.128 79.8223 297.8C80.1583 297.464 80.6743 297.296 81.3703 297.296C81.5463 297.296 81.7223 297.304 81.8983 297.32C82.0743 297.336 82.2383 297.36 82.3903 297.392V298.232C82.2943 298.208 82.1623 298.192 81.9943 298.184C81.8343 298.168 81.6743 298.16 81.5143 298.16C81.0583 298.16 80.7423 298.244 80.5663 298.412C80.3903 298.572 80.3023 298.868 80.3023 299.3V299.468H82.2103V300.308H80.3023V305.396H79.3183V300.308ZM88.1979 302.42C88.1979 303.54 87.9899 304.332 87.5739 304.796C87.1659 305.26 86.4619 305.492 85.4619 305.492C84.4299 305.492 83.7139 305.268 83.3139 304.82C82.9139 304.372 82.7139 303.572 82.7139 302.42C82.7139 301.292 82.9179 300.5 83.3259 300.044C83.7419 299.58 84.4539 299.348 85.4619 299.348C86.4939 299.348 87.2059 299.572 87.5979 300.02C87.9979 300.468 88.1979 301.268 88.1979 302.42ZM83.6979 302.408C83.6979 303.288 83.8139 303.872 84.0459 304.16C84.2779 304.44 84.7499 304.58 85.4619 304.58C86.1499 304.58 86.6139 304.432 86.8539 304.136C87.0939 303.832 87.2139 303.256 87.2139 302.408C87.2139 301.528 87.0979 300.948 86.8659 300.668C86.6419 300.38 86.1739 300.236 85.4619 300.236C84.7659 300.236 84.2979 300.384 84.0579 300.68C83.8179 300.976 83.6979 301.552 83.6979 302.408ZM90.4895 305.396H89.5055V299.468H90.3575L90.4055 300.044H90.4415C90.7615 299.804 91.0935 299.628 91.4375 299.516C91.7895 299.404 92.1815 299.348 92.6135 299.348C93.2695 299.348 93.7655 299.512 94.1015 299.84C94.4455 300.168 94.6175 300.652 94.6175 301.292V305.396H93.6335V301.412C93.6335 301.012 93.5215 300.716 93.2975 300.524C93.0735 300.332 92.7295 300.236 92.2655 300.236C91.9775 300.236 91.6815 300.284 91.3775 300.38C91.0815 300.468 90.7855 300.6 90.4895 300.776V305.396ZM100.602 304.244V305.072C100.394 305.184 100.086 305.284 99.678 305.372C99.278 305.452 98.87 305.492 98.454 305.492C97.526 305.492 96.862 305.252 96.462 304.772C96.062 304.292 95.862 303.5 95.862 302.396C95.862 301.332 96.07 300.56 96.486 300.08C96.902 299.592 97.566 299.348 98.478 299.348C99.326 299.348 99.934 299.54 100.302 299.924C100.67 300.3 100.854 300.932 100.854 301.82C100.854 301.98 100.85 302.128 100.842 302.264C100.834 302.4 100.818 302.564 100.794 302.756H96.858C96.866 303.412 96.998 303.88 97.254 304.16C97.518 304.44 97.97 304.58 98.61 304.58C98.954 304.58 99.314 304.548 99.69 304.484C100.066 304.42 100.37 304.34 100.602 304.244ZM99.954 301.688C99.946 301.16 99.83 300.788 99.606 300.572C99.382 300.348 99.006 300.236 98.478 300.236C97.886 300.236 97.466 300.364 97.218 300.62C96.978 300.868 96.858 301.308 96.858 301.94H99.942C99.942 301.924 99.942 301.888 99.942 301.832C99.95 301.768 99.954 301.72 99.954 301.688Z" fill="#D0D0D0"/>
<g filter="url(#filter3_d_17_2121)">
<rect x="25.2401" y="341.634" width="309.873" height="40" rx="20" fill="white"/>
</g>
<path d="M62.6138 363.77C62.9418 363.77 63.2858 363.734 63.6458 363.662C64.0138 363.582 64.3538 363.478 64.6658 363.35V364.262C64.2258 364.438 63.8338 364.562 63.4898 364.634C63.1538 364.698 62.8018 364.73 62.4338 364.73C61.2818 364.73 60.4698 364.434 59.9978 363.842C59.5258 363.242 59.2898 362.246 59.2898 360.854C59.2898 359.518 59.5618 358.542 60.1058 357.926C60.6578 357.302 61.5338 356.99 62.7338 356.99C63.1018 356.99 63.4298 356.998 63.7178 357.014C64.0058 357.03 64.2658 357.058 64.4978 357.098V357.998C64.2178 357.966 63.9338 357.946 63.6458 357.938C63.3658 357.922 63.0618 357.914 62.7338 357.914C61.8378 357.914 61.2138 358.138 60.8618 358.586C60.5098 359.026 60.3338 359.782 60.3338 360.854C60.3338 361.942 60.4938 362.702 60.8138 363.134C61.1338 363.558 61.7338 363.77 62.6138 363.77ZM66.8568 362.198V364.634H65.8368V357.11H68.3928C69.4568 357.11 70.2168 357.302 70.6728 357.686C71.1368 358.07 71.3688 358.698 71.3688 359.57C71.3688 360.458 71.1288 361.118 70.6488 361.55C70.1688 361.982 69.4288 362.198 68.4288 362.198H66.8568ZM70.3368 359.57C70.3368 359.018 70.1848 358.626 69.8808 358.394C69.5848 358.154 69.0888 358.034 68.3928 358.034H66.8568V361.298H68.3928C69.0888 361.298 69.5848 361.162 69.8808 360.89C70.1848 360.618 70.3368 360.178 70.3368 359.57ZM73.6185 361.538V364.634H72.5985V357.11H77.4225V358.034H73.6185V360.638H76.9785V361.538H73.6185Z" fill="#D0D0D0"/>
<path d="M48.8842 359.537H44.2133M48.8842 363.274H44.2133M44.6804 367.634H48.4171C51.5311 367.634 52.7767 366.388 52.7767 363.274V359.537C52.7767 356.423 51.5311 355.178 48.4171 355.178H44.6804C41.5664 355.178 40.3208 356.423 40.3208 359.537V363.274C40.3208 366.388 41.5664 367.634 44.6804 367.634Z" stroke="#D9D9D9" stroke-width="1.5" stroke-linecap="round" stroke-linejoin="round"/>
<path d="M142.32 131.864V137H139.44V121.952H144.744C146.968 121.952 148.552 122.328 149.496 123.08C150.456 123.832 150.936 125.088 150.936 126.848C150.936 128.112 150.656 129.136 150.096 129.92C149.552 130.688 148.72 131.224 147.6 131.528L151.392 137H147.936L144.552 131.864H142.32ZM148.008 126.848C148.008 126.016 147.76 125.424 147.264 125.072C146.784 124.72 145.944 124.544 144.744 124.544H142.32V129.464H144.744C145.944 129.464 146.784 129.264 147.264 128.864C147.76 128.464 148.008 127.792 148.008 126.848ZM162.297 134.096V136.352C161.897 136.592 161.265 136.8 160.401 136.976C159.553 137.136 158.665 137.216 157.737 137.216C155.849 137.216 154.489 136.736 153.657 135.776C152.841 134.816 152.433 133.232 152.433 131.024C152.433 128.896 152.865 127.344 153.729 126.368C154.593 125.392 155.961 124.904 157.833 124.904C159.641 124.904 160.921 125.28 161.673 126.032C162.425 126.784 162.801 128.072 162.801 129.896C162.801 130.232 162.793 130.544 162.777 130.832C162.761 131.104 162.729 131.488 162.681 131.984H155.241C155.257 132.976 155.473 133.672 155.889 134.072C156.321 134.472 157.081 134.672 158.169 134.672C158.889 134.672 159.633 134.616 160.401 134.504C161.169 134.392 161.801 134.256 162.297 134.096ZM157.833 127.328C156.857 127.328 156.177 127.52 155.793 127.904C155.425 128.288 155.241 128.984 155.241 129.992H160.257V129.488C160.241 128.672 160.057 128.112 159.705 127.808C159.353 127.488 158.729 127.328 157.833 127.328ZM170.002 140.888C169.17 140.888 168.378 140.832 167.626 140.72C166.89 140.624 166.298 140.488 165.85 140.312V137.912C166.218 138.04 166.77 138.144 167.506 138.224C168.258 138.32 169.002 138.368 169.738 138.368C170.762 138.368 171.466 138.184 171.85 137.816C172.25 137.448 172.458 136.792 172.474 135.848V135.176C171.882 135.496 171.266 135.744 170.626 135.92C169.986 136.096 169.354 136.184 168.73 136.184C167.178 136.184 166.074 135.752 165.418 134.888C164.762 134.024 164.434 132.576 164.434 130.544C164.434 128.512 164.874 127.064 165.754 126.2C166.65 125.336 168.154 124.904 170.266 124.904C171.082 124.904 171.978 124.952 172.954 125.048C173.946 125.144 174.714 125.248 175.258 125.36V135.008C175.258 137.184 174.866 138.704 174.082 139.568C173.298 140.448 171.938 140.888 170.002 140.888ZM170.266 127.4C168.97 127.4 168.138 127.6 167.77 128C167.402 128.384 167.218 129.232 167.218 130.544C167.218 131.76 167.37 132.576 167.674 132.992C167.994 133.392 168.658 133.592 169.666 133.592C170.098 133.592 170.554 133.544 171.034 133.448C171.53 133.336 172.01 133.192 172.474 133.016V127.616C172.138 127.552 171.778 127.504 171.394 127.472C171.026 127.424 170.65 127.4 170.266 127.4ZM180.731 123.464H177.779V121.04H180.731V123.464ZM180.659 137H177.875V125.144H180.659V137ZM187.705 127.304C186.857 127.304 186.273 127.392 185.953 127.568C185.649 127.728 185.497 128.088 185.497 128.648C185.497 128.92 185.561 129.128 185.689 129.272C185.817 129.4 186.033 129.488 186.337 129.536L189.289 129.968C190.233 130.096 190.889 130.392 191.257 130.856C191.641 131.32 191.833 132.056 191.833 133.064C191.833 134.52 191.497 135.576 190.825 136.232C190.153 136.888 189.009 137.216 187.393 137.216C186.465 137.216 185.617 137.176 184.849 137.096C184.081 137.016 183.433 136.896 182.905 136.736V134.264C183.401 134.392 184.009 134.504 184.729 134.6C185.449 134.68 186.177 134.72 186.913 134.72C187.745 134.72 188.305 134.616 188.593 134.408C188.897 134.2 189.049 133.808 189.049 133.232C189.049 132.944 188.977 132.728 188.833 132.584C188.689 132.424 188.449 132.32 188.113 132.272L185.113 131.84C184.297 131.728 183.697 131.424 183.313 130.928C182.929 130.416 182.737 129.68 182.737 128.72C182.737 127.424 183.129 126.464 183.913 125.84C184.713 125.216 185.921 124.904 187.537 124.904C188.193 124.904 188.793 124.92 189.337 124.952C189.881 124.984 190.441 125.048 191.017 125.144V127.52C190.601 127.456 190.097 127.408 189.505 127.376C188.929 127.328 188.329 127.304 187.705 127.304ZM201.088 134.408V136.784C200.816 136.896 200.432 136.992 199.936 137.072C199.456 137.168 199.016 137.216 198.616 137.216C197.096 137.216 196.008 136.888 195.352 136.232C194.696 135.56 194.368 134.448 194.368 132.896V127.472H192.784V125.144H194.44L194.824 122.312H197.152V125.144H200.944V127.472H197.152V132.8C197.152 133.504 197.304 133.984 197.608 134.24C197.912 134.496 198.456 134.624 199.24 134.624C199.512 134.624 199.832 134.608 200.2 134.576C200.568 134.528 200.864 134.472 201.088 134.408ZM205.479 137H202.695V125.144H205.263L205.383 126.104H205.455C206.047 125.752 206.647 125.48 207.255 125.288C207.863 125.096 208.455 125 209.031 125C209.191 125 209.295 125 209.343 125C209.407 125 209.455 125.008 209.487 125.024V127.712C209.391 127.68 209.263 127.664 209.103 127.664C208.959 127.648 208.703 127.64 208.335 127.64C207.775 127.64 207.255 127.688 206.775 127.784C206.295 127.88 205.863 128.016 205.479 128.192V137ZM213.588 137.216C212.372 137.216 211.476 136.92 210.9 136.328C210.34 135.72 210.06 134.776 210.06 133.496C210.06 132.184 210.396 131.256 211.068 130.712C211.756 130.168 212.932 129.896 214.596 129.896C215.06 129.896 215.532 129.92 216.012 129.968C216.492 130.016 216.908 130.08 217.26 130.16V129.152C217.26 128.528 217.068 128.072 216.684 127.784C216.3 127.496 215.692 127.352 214.86 127.352C214.108 127.352 213.436 127.376 212.844 127.424C212.268 127.472 211.716 127.552 211.188 127.664V125.336C211.796 125.192 212.452 125.088 213.156 125.024C213.876 124.944 214.724 124.904 215.7 124.904C217.156 124.904 218.244 125.24 218.964 125.912C219.684 126.568 220.044 127.56 220.044 128.888V137H217.476L217.356 135.944H217.308C216.796 136.328 216.204 136.64 215.532 136.88C214.876 137.104 214.228 137.216 213.588 137.216ZM214.932 131.888C214.068 131.888 213.476 131.992 213.156 132.2C212.836 132.392 212.676 132.768 212.676 133.328C212.676 133.872 212.804 134.264 213.06 134.504C213.332 134.728 213.788 134.84 214.428 134.84C214.892 134.84 215.38 134.776 215.892 134.648C216.42 134.504 216.876 134.328 217.26 134.12V132.08C216.876 132.016 216.492 131.968 216.108 131.936C215.74 131.904 215.348 131.888 214.932 131.888ZM225.401 137H222.617V125.144H225.185L225.305 126.104H225.377C225.969 125.752 226.569 125.48 227.177 125.288C227.785 125.096 228.377 125 228.953 125C229.113 125 229.217 125 229.265 125C229.329 125 229.377 125.008 229.409 125.024V127.712C229.313 127.68 229.185 127.664 229.025 127.664C228.881 127.648 228.625 127.64 228.257 127.64C227.697 127.64 227.177 127.688 226.697 127.784C226.217 127.88 225.785 128.016 225.401 128.192V137Z" fill="white"/>
<rect opacity="0.35" x="323.38" y="17.8333" width="20.12" height="10.3333" rx="2.16667" stroke="#323232"/>
<path opacity="0.4" d="M344.96 21V25C345.733 24.6612 346.235 23.8731 346.235 23C346.235 22.1269 345.733 21.3388 344.96 21Z" fill="#323232"/>
<rect x="324.8" y="19.3333" width="17.28" height="7.33333" rx="1.33333" fill="#323232"/>
<path fill-rule="evenodd" clip-rule="evenodd" d="M310.72 19.6152C312.856 19.6153 314.91 20.4694 316.458 22.001C316.575 22.1192 316.761 22.1177 316.876 21.9976L317.99 20.8273C318.048 20.7664 318.08 20.6839 318.08 20.598C318.079 20.5122 318.046 20.4301 317.987 20.3699C313.925 16.3176 307.515 16.3176 303.453 20.3699C303.394 20.43 303.361 20.5121 303.36 20.598C303.359 20.6838 303.392 20.7663 303.45 20.8273L304.564 21.9976C304.679 22.1179 304.866 22.1194 304.982 22.001C306.53 20.4693 308.584 19.6152 310.72 19.6152ZM310.72 23.4227C311.894 23.4227 313.025 23.8766 313.895 24.6964C314.013 24.8127 314.198 24.8102 314.313 24.6907L315.426 23.5204C315.484 23.459 315.517 23.3757 315.516 23.2892C315.515 23.2027 315.481 23.1201 315.421 23.0599C312.773 20.4955 308.671 20.4955 306.022 23.0599C305.962 23.1201 305.928 23.2027 305.927 23.2893C305.926 23.3758 305.959 23.4591 306.018 23.5204L307.13 24.6907C307.245 24.8102 307.43 24.8127 307.548 24.6964C308.417 23.8772 309.548 23.4233 310.72 23.4227ZM312.95 25.9846C312.951 26.0714 312.919 26.155 312.859 26.2158L310.934 28.2378C310.878 28.2972 310.801 28.3307 310.72 28.3307C310.64 28.3307 310.563 28.2972 310.507 28.2378L308.581 26.2158C308.522 26.155 308.489 26.0713 308.491 25.9845C308.493 25.8977 308.529 25.8156 308.591 25.7574C309.82 24.6751 311.621 24.6751 312.85 25.7574C312.912 25.8156 312.948 25.8978 312.95 25.9846Z" fill="#323232"/>
<path fill-rule="evenodd" clip-rule="evenodd" d="M297.6 17.6667H296.64C296.11 17.6667 295.68 18.1144 295.68 18.6667V27.3334C295.68 27.8856 296.11 28.3334 296.64 28.3334H297.6C298.13 28.3334 298.56 27.8856 298.56 27.3334V18.6667C298.56 18.1144 298.13 17.6667 297.6 17.6667ZM292.16 20H293.12C293.65 20 294.08 20.4477 294.08 21V27.3334C294.08 27.8856 293.65 28.3334 293.12 28.3334H292.16C291.63 28.3334 291.2 27.8856 291.2 27.3334V21C291.2 20.4477 291.63 20 292.16 20ZM288.64 22.3334H287.68C287.15 22.3334 286.72 22.7811 286.72 23.3334V27.3334C286.72 27.8856 287.15 28.3334 287.68 28.3334H288.64C289.17 28.3334 289.6 27.8856 289.6 27.3334V23.3334C289.6 22.7811 289.17 22.3334 288.64 22.3334ZM284.16 24.3334H283.2C282.67 24.3334 282.24 24.7811 282.24 25.3334V27.3334C282.24 27.8856 282.67 28.3334 283.2 28.3334H284.16C284.69 28.3334 285.12 27.8856 285.12 27.3334V25.3334C285.12 24.7811 284.69 24.3334 284.16 24.3334Z" fill="#323232"/>
<path d="M16.4105 12.2695C14.1181 12.2695 12.4848 13.8369 12.4848 15.9829V15.9976C12.4848 18.0044 13.9057 19.4839 15.9345 19.4839C17.3847 19.4839 18.3075 18.7441 18.6957 17.9092H18.8422C18.8422 17.9897 18.8349 18.0703 18.8349 18.1509C18.7543 20.1724 18.0438 21.813 16.3666 21.813C15.4364 21.813 14.7846 21.3296 14.5062 20.5898L14.4843 20.5166H12.6239L12.6386 20.5972C12.9755 22.2158 14.4257 23.3657 16.3666 23.3657C19.0253 23.3657 20.6293 21.2563 20.6293 17.6968V17.6821C20.6293 13.8735 18.6664 12.2695 16.4105 12.2695ZM16.4032 18.0337C15.2021 18.0337 14.3305 17.1548 14.3305 15.9316V15.917C14.3305 14.7378 15.2606 13.8076 16.4252 13.8076C17.5971 13.8076 18.5126 14.7524 18.5126 15.9609V15.9756C18.5126 17.1694 17.5971 18.0337 16.4032 18.0337ZM23.7877 17.8066C24.4616 17.8066 24.9523 17.3013 24.9523 16.6567C24.9523 16.0049 24.4616 15.4995 23.7877 15.4995C23.1212 15.4995 22.6232 16.0049 22.6232 16.6567C22.6232 17.3013 23.1212 17.8066 23.7877 17.8066ZM23.7877 23.2485C24.4616 23.2485 24.9523 22.7358 24.9523 22.0913C24.9523 21.4395 24.4616 20.9341 23.7877 20.9341C23.1212 20.9341 22.6232 21.4395 22.6232 22.0913C22.6232 22.7358 23.1212 23.2485 23.7877 23.2485ZM31.8534 23.1021H33.6625V21.0732H35.0834V19.5132H33.6625V12.5332H30.9891C29.5536 14.7158 28.0521 17.1475 26.6825 19.5278V21.0732H31.8534V23.1021ZM28.4403 19.5571V19.4473C29.4657 17.6528 30.6888 15.6973 31.7728 14.042H31.8827V19.5571H28.4403ZM39.2233 23.1021H41.1129V12.5332H39.2306L36.4694 14.4741V16.2539L39.0987 14.3936H39.2233V23.1021Z" fill="#323232"/>
<g filter="url(#filter4_d_17_2121)">
<rect x="24.887" y="222.396" width="309.873" height="40" rx="20" fill="white"/>
</g>
<path d="M62.1768 242.24L60.3528 241.808C59.8488 241.688 59.4848 241.484 59.2608 241.196C59.0368 240.9 58.9248 240.492 58.9248 239.972C58.9248 239.212 59.1408 238.652 59.5728 238.292C60.0128 237.932 60.6928 237.752 61.6128 237.752C61.9968 237.752 62.3408 237.772 62.6448 237.812C62.9568 237.844 63.2448 237.896 63.5088 237.968V238.892C63.1728 238.812 62.8528 238.756 62.5488 238.724C62.2448 238.692 61.9288 238.676 61.6008 238.676C60.9848 238.676 60.5528 238.768 60.3048 238.952C60.0568 239.128 59.9328 239.444 59.9328 239.9C59.9328 240.188 59.9888 240.408 60.1008 240.56C60.2208 240.704 60.4128 240.808 60.6768 240.872L62.4888 241.304C63.1288 241.456 63.5528 241.672 63.7608 241.952C63.9768 242.224 64.0848 242.648 64.0848 243.224C64.0848 244.048 63.8688 244.632 63.4368 244.976C63.0128 245.32 62.3368 245.492 61.4088 245.492C60.9208 245.492 60.4488 245.46 59.9928 245.396C59.5448 245.332 59.1888 245.248 58.9248 245.144V244.184C59.3008 244.296 59.7008 244.384 60.1248 244.448C60.5488 244.504 60.9768 244.532 61.4088 244.532C62.0088 244.532 62.4288 244.444 62.6688 244.268C62.9088 244.092 63.0288 243.752 63.0288 243.248C63.0288 242.936 62.9688 242.712 62.8488 242.576C62.7368 242.432 62.5128 242.32 62.1768 242.24ZM69.6997 244.244V245.072C69.4917 245.184 69.1837 245.284 68.7757 245.372C68.3757 245.452 67.9677 245.492 67.5517 245.492C66.6237 245.492 65.9597 245.252 65.5597 244.772C65.1597 244.292 64.9597 243.5 64.9597 242.396C64.9597 241.332 65.1677 240.56 65.5837 240.08C65.9997 239.592 66.6637 239.348 67.5757 239.348C68.4237 239.348 69.0317 239.54 69.3997 239.924C69.7677 240.3 69.9517 240.932 69.9517 241.82C69.9517 241.98 69.9477 242.128 69.9397 242.264C69.9317 242.4 69.9157 242.564 69.8917 242.756H65.9557C65.9637 243.412 66.0957 243.88 66.3517 244.16C66.6157 244.44 67.0677 244.58 67.7077 244.58C68.0517 244.58 68.4117 244.548 68.7877 244.484C69.1637 244.42 69.4677 244.34 69.6997 244.244ZM69.0517 241.688C69.0437 241.16 68.9277 240.788 68.7037 240.572C68.4797 240.348 68.1037 240.236 67.5757 240.236C66.9837 240.236 66.5637 240.364 66.3157 240.62C66.0757 240.868 65.9557 241.308 65.9557 241.94H69.0397C69.0397 241.924 69.0397 241.888 69.0397 241.832C69.0477 241.768 69.0517 241.72 69.0517 241.688ZM72.2083 245.396H71.2243V239.468H72.0763L72.1243 240.044H72.1603C72.4803 239.804 72.8123 239.628 73.1563 239.516C73.5083 239.404 73.9003 239.348 74.3323 239.348C74.9883 239.348 75.4843 239.512 75.8203 239.84C76.1643 240.168 76.3363 240.652 76.3363 241.292V245.396H75.3523V241.412C75.3523 241.012 75.2403 240.716 75.0163 240.524C74.7923 240.332 74.4483 240.236 73.9843 240.236C73.6963 240.236 73.4003 240.284 73.0963 240.38C72.8003 240.468 72.5043 240.6 72.2083 240.776V245.396ZM78.8528 245.396H77.8688V237.416H78.8528V239.948C79.2128 239.748 79.5688 239.6 79.9208 239.504C80.2808 239.4 80.6368 239.348 80.9888 239.348C81.6448 239.348 82.1368 239.512 82.4648 239.84C82.8008 240.168 82.9688 240.652 82.9688 241.292V245.396H81.9848V241.412C81.9848 241.004 81.8768 240.708 81.6608 240.524C81.4528 240.332 81.1248 240.236 80.6768 240.236C80.3808 240.236 80.0728 240.276 79.7528 240.356C79.4408 240.436 79.1408 240.548 78.8528 240.692V245.396ZM85.8456 245.492C85.2376 245.492 84.7896 245.348 84.5016 245.06C84.2216 244.764 84.0816 244.3 84.0816 243.668C84.0816 243.028 84.2536 242.576 84.5976 242.312C84.9416 242.04 85.5256 241.904 86.3496 241.904C86.6216 241.904 86.8896 241.916 87.1536 241.94C87.4176 241.964 87.6656 242 87.8976 242.048V241.472C87.8976 241.032 87.7856 240.716 87.5616 240.524C87.3376 240.332 86.9776 240.236 86.4816 240.236C86.1136 240.236 85.7896 240.252 85.5096 240.284C85.2296 240.308 84.9496 240.352 84.6696 240.416V239.564C84.9896 239.484 85.3136 239.428 85.6416 239.396C85.9776 239.364 86.3576 239.348 86.7816 239.348C87.4936 239.348 88.0216 239.516 88.3656 239.852C88.7096 240.18 88.8816 240.692 88.8816 241.388V245.396H87.9816L87.9336 244.844H87.9096C87.6696 245.036 87.3576 245.192 86.9736 245.312C86.5976 245.432 86.2216 245.492 85.8456 245.492ZM86.4576 242.708C85.9136 242.708 85.5336 242.776 85.3176 242.912C85.1096 243.04 85.0056 243.272 85.0056 243.608C85.0056 243.96 85.0936 244.216 85.2696 244.376C85.4456 244.528 85.7336 244.604 86.1336 244.604C86.4456 244.604 86.7656 244.556 87.0936 244.46C87.4216 244.364 87.6896 244.244 87.8976 244.1V242.828C87.6336 242.788 87.3856 242.76 87.1536 242.744C86.9296 242.72 86.6976 242.708 86.4576 242.708Z" fill="#D0D0D0"/>
<path d="M62.1768 242.24L60.3528 241.808C59.8488 241.688 59.4848 241.484 59.2608 241.196C59.0368 240.9 58.9248 240.492 58.9248 239.972C58.9248 239.212 59.1408 238.652 59.5728 238.292C60.0128 237.932 60.6928 237.752 61.6128 237.752C61.9968 237.752 62.3408 237.772 62.6448 237.812C62.9568 237.844 63.2448 237.896 63.5088 237.968V238.892C63.1728 238.812 62.8528 238.756 62.5488 238.724C62.2448 238.692 61.9288 238.676 61.6008 238.676C60.9848 238.676 60.5528 238.768 60.3048 238.952C60.0568 239.128 59.9328 239.444 59.9328 239.9C59.9328 240.188 59.9888 240.408 60.1008 240.56C60.2208 240.704 60.4128 240.808 60.6768 240.872L62.4888 241.304C63.1288 241.456 63.5528 241.672 63.7608 241.952C63.9768 242.224 64.0848 242.648 64.0848 243.224C64.0848 244.048 63.8688 244.632 63.4368 244.976C63.0128 245.32 62.3368 245.492 61.4088 245.492C60.9208 245.492 60.4488 245.46 59.9928 245.396C59.5448 245.332 59.1888 245.248 58.9248 245.144V244.184C59.3008 244.296 59.7008 244.384 60.1248 244.448C60.5488 244.504 60.9768 244.532 61.4088 244.532C62.0088 244.532 62.4288 244.444 62.6688 244.268C62.9088 244.092 63.0288 243.752 63.0288 243.248C63.0288 242.936 62.9688 242.712 62.8488 242.576C62.7368 242.432 62.5128 242.32 62.1768 242.24ZM69.6997 244.244V245.072C69.4917 245.184 69.1837 245.284 68.7757 245.372C68.3757 245.452 67.9677 245.492 67.5517 245.492C66.6237 245.492 65.9597 245.252 65.5597 244.772C65.1597 244.292 64.9597 243.5 64.9597 242.396C64.9597 241.332 65.1677 240.56 65.5837 240.08C65.9997 239.592 66.6637 239.348 67.5757 239.348C68.4237 239.348 69.0317 239.54 69.3997 239.924C69.7677 240.3 69.9517 240.932 69.9517 241.82C69.9517 241.98 69.9477 242.128 69.9397 242.264C69.9317 242.4 69.9157 242.564 69.8917 242.756H65.9557C65.9637 243.412 66.0957 243.88 66.3517 244.16C66.6157 244.44 67.0677 244.58 67.7077 244.58C68.0517 244.58 68.4117 244.548 68.7877 244.484C69.1637 244.42 69.4677 244.34 69.6997 244.244ZM69.0517 241.688C69.0437 241.16 68.9277 240.788 68.7037 240.572C68.4797 240.348 68.1037 240.236 67.5757 240.236C66.9837 240.236 66.5637 240.364 66.3157 240.62C66.0757 240.868 65.9557 241.308 65.9557 241.94H69.0397C69.0397 241.924 69.0397 241.888 69.0397 241.832C69.0477 241.768 69.0517 241.72 69.0517 241.688ZM72.2083 245.396H71.2243V239.468H72.0763L72.1243 240.044H72.1603C72.4803 239.804 72.8123 239.628 73.1563 239.516C73.5083 239.404 73.9003 239.348 74.3323 239.348C74.9883 239.348 75.4843 239.512 75.8203 239.84C76.1643 240.168 76.3363 240.652 76.3363 241.292V245.396H75.3523V241.412C75.3523 241.012 75.2403 240.716 75.0163 240.524C74.7923 240.332 74.4483 240.236 73.9843 240.236C73.6963 240.236 73.4003 240.284 73.0963 240.38C72.8003 240.468 72.5043 240.6 72.2083 240.776V245.396ZM78.8528 245.396H77.8688V237.416H78.8528V239.948C79.2128 239.748 79.5688 239.6 79.9208 239.504C80.2808 239.4 80.6368 239.348 80.9888 239.348C81.6448 239.348 82.1368 239.512 82.4648 239.84C82.8008 240.168 82.9688 240.652 82.9688 241.292V245.396H81.9848V241.412C81.9848 241.004 81.8768 240.708 81.6608 240.524C81.4528 240.332 81.1248 240.236 80.6768 240.236C80.3808 240.236 80.0728 240.276 79.7528 240.356C79.4408 240.436 79.1408 240.548 78.8528 240.692V245.396ZM85.8456 245.492C85.2376 245.492 84.7896 245.348 84.5016 245.06C84.2216 244.764 84.0816 244.3 84.0816 243.668C84.0816 243.028 84.2536 242.576 84.5976 242.312C84.9416 242.04 85.5256 241.904 86.3496 241.904C86.6216 241.904 86.8896 241.916 87.1536 241.94C87.4176 241.964 87.6656 242 87.8976 242.048V241.472C87.8976 241.032 87.7856 240.716 87.5616 240.524C87.3376 240.332 86.9776 240.236 86.4816 240.236C86.1136 240.236 85.7896 240.252 85.5096 240.284C85.2296 240.308 84.9496 240.352 84.6696 240.416V239.564C84.9896 239.484 85.3136 239.428 85.6416 239.396C85.9776 239.364 86.3576 239.348 86.7816 239.348C87.4936 239.348 88.0216 239.516 88.3656 239.852C88.7096 240.18 88.8816 240.692 88.8816 241.388V245.396H87.9816L87.9336 244.844H87.9096C87.6696 245.036 87.3576 245.192 86.9736 245.312C86.5976 245.432 86.2216 245.492 85.8456 245.492ZM86.4576 242.708C85.9136 242.708 85.5336 242.776 85.3176 242.912C85.1096 243.04 85.0056 243.272 85.0056 243.608C85.0056 243.96 85.0936 244.216 85.2696 244.376C85.4456 244.528 85.7336 244.604 86.1336 244.604C86.4456 244.604 86.7656 244.556 87.0936 244.46C87.4216 244.364 87.6896 244.244 87.8976 244.1V242.828C87.6336 242.788 87.3856 242.76 87.1536 242.744C86.9296 242.72 86.6976 242.708 86.4576 242.708Z" fill="#D0D0D0"/>
<rect x="41.2767" y="240.434" width="10" height="7.46154" rx="0.5" stroke="#D9D9D9"/>
<path d="M42.969 239.511C42.969 237.684 44.4499 236.203 46.2767 236.203C48.1035 236.203 49.5844 237.684 49.5844 239.511V240.28H42.969V239.511Z" stroke="#D9D9D9"/>
<circle cx="46.2767" cy="244.434" r="1.26923" fill="#C4C4C4"/>
<g filter="url(#filter5_d_17_2121)">
<rect x="25.2401" y="415.467" width="309.686" height="35" rx="17.5" fill="#6A74CF"/>
</g>
<path d="M161.695 434.267V436.967H160.675V429.443H163.231C164.295 429.443 165.055 429.627 165.511 429.995C165.975 430.355 166.207 430.955 166.207 431.795C166.207 432.451 166.059 432.975 165.763 433.367C165.475 433.751 165.035 434.011 164.443 434.147L166.411 436.967H165.187L163.363 434.267H161.695ZM165.175 431.795C165.175 431.283 165.027 430.919 164.731 430.703C164.435 430.479 163.935 430.367 163.231 430.367H161.695V433.367H163.231C163.919 433.367 164.415 433.243 164.719 432.995C165.023 432.747 165.175 432.347 165.175 431.795ZM171.934 435.815V436.643C171.726 436.755 171.418 436.855 171.01 436.943C170.61 437.023 170.202 437.063 169.786 437.063C168.858 437.063 168.194 436.823 167.794 436.343C167.394 435.863 167.194 435.071 167.194 433.967C167.194 432.903 167.402 432.131 167.818 431.651C168.234 431.163 168.898 430.919 169.81 430.919C170.658 430.919 171.266 431.111 171.634 431.495C172.002 431.871 172.186 432.503 172.186 433.391C172.186 433.551 172.182 433.699 172.174 433.835C172.166 433.971 172.15 434.135 172.126 434.327H168.19C168.198 434.983 168.33 435.451 168.586 435.731C168.85 436.011 169.302 436.151 169.942 436.151C170.286 436.151 170.646 436.119 171.022 436.055C171.398 435.991 171.702 435.911 171.934 435.815ZM171.286 433.259C171.278 432.731 171.162 432.359 170.938 432.143C170.714 431.919 170.338 431.807 169.81 431.807C169.218 431.807 168.798 431.935 168.55 432.191C168.31 432.439 168.19 432.879 168.19 433.511H171.274C171.274 433.495 171.274 433.459 171.274 433.403C171.282 433.339 171.286 433.291 171.286 433.259ZM175.87 438.911C175.47 438.911 175.094 438.883 174.742 438.827C174.398 438.779 174.114 438.711 173.89 438.623V437.747C174.074 437.819 174.342 437.879 174.694 437.927C175.054 437.975 175.41 437.999 175.762 437.999C176.362 437.999 176.778 437.879 177.01 437.639C177.242 437.407 177.358 436.991 177.358 436.391V436.019C177.062 436.195 176.746 436.331 176.41 436.427C176.074 436.515 175.734 436.559 175.39 436.559C174.598 436.559 174.03 436.339 173.686 435.899C173.35 435.459 173.182 434.739 173.182 433.739C173.182 432.723 173.398 431.999 173.83 431.567C174.27 431.135 175.014 430.919 176.062 430.919C176.438 430.919 176.842 430.943 177.274 430.991C177.706 431.031 178.062 431.083 178.342 431.147V436.115C178.342 437.155 178.158 437.879 177.79 438.287C177.422 438.703 176.782 438.911 175.87 438.911ZM176.062 431.807C175.294 431.807 174.786 431.939 174.538 432.203C174.29 432.467 174.166 432.979 174.166 433.739C174.166 434.459 174.27 434.959 174.478 435.239C174.694 435.511 175.106 435.647 175.714 435.647C175.978 435.647 176.25 435.611 176.53 435.539C176.818 435.459 177.094 435.351 177.358 435.215V431.939C177.166 431.899 176.958 431.867 176.734 431.843C176.518 431.819 176.294 431.807 176.062 431.807ZM180.935 430.007H179.879V428.987H180.935V430.007ZM180.899 436.967H179.915V431.039H180.899V436.967ZM184.522 431.807C184.01 431.807 183.654 431.867 183.454 431.987C183.262 432.107 183.166 432.351 183.166 432.719C183.166 432.911 183.21 433.059 183.298 433.163C183.394 433.259 183.542 433.323 183.742 433.355L185.266 433.583C185.746 433.655 186.082 433.807 186.274 434.039C186.466 434.263 186.562 434.619 186.562 435.107C186.562 435.795 186.398 436.295 186.07 436.607C185.742 436.911 185.198 437.063 184.438 437.063C183.982 437.063 183.558 437.039 183.166 436.991C182.774 436.943 182.45 436.879 182.194 436.799V435.875C182.45 435.955 182.762 436.023 183.13 436.079C183.506 436.127 183.89 436.151 184.282 436.151C184.778 436.151 185.118 436.079 185.302 435.935C185.486 435.791 185.578 435.535 185.578 435.167C185.578 434.935 185.526 434.767 185.422 434.663C185.318 434.551 185.13 434.475 184.858 434.435L183.334 434.207C182.95 434.151 182.662 434.003 182.47 433.763C182.286 433.523 182.19 433.175 182.182 432.719C182.182 432.095 182.366 431.639 182.734 431.351C183.11 431.063 183.686 430.919 184.462 430.919C184.782 430.919 185.07 430.927 185.326 430.943C185.59 430.959 185.866 430.991 186.154 431.039V431.915C185.946 431.883 185.702 431.859 185.422 431.843C185.142 431.819 184.842 431.807 184.522 431.807ZM191.176 436.043V436.871C191.048 436.927 190.872 436.971 190.648 437.003C190.432 437.043 190.224 437.063 190.024 437.063C189.304 437.063 188.788 436.903 188.476 436.583C188.172 436.263 188.02 435.711 188.02 434.927V431.879H187.132V431.039H188.032L188.188 429.599H189.004V431.039H191.116V431.879H189.004V434.891C189.004 435.379 189.092 435.711 189.268 435.887C189.452 436.063 189.772 436.151 190.228 436.151C190.372 436.151 190.536 436.139 190.72 436.115C190.912 436.091 191.064 436.067 191.176 436.043ZM193.134 436.967H192.15V431.039H193.05L193.098 431.543H193.146C193.458 431.359 193.77 431.223 194.082 431.135C194.394 431.039 194.702 430.991 195.006 430.991C195.134 430.991 195.218 430.991 195.258 430.991C195.306 430.991 195.342 430.995 195.366 431.003V431.951C195.31 431.935 195.238 431.927 195.15 431.927C195.07 431.919 194.942 431.915 194.766 431.915C194.478 431.915 194.194 431.951 193.914 432.023C193.642 432.087 193.382 432.187 193.134 432.323V436.967ZM197.572 437.063C196.964 437.063 196.516 436.919 196.228 436.631C195.948 436.335 195.808 435.871 195.808 435.239C195.808 434.599 195.98 434.147 196.324 433.883C196.668 433.611 197.252 433.475 198.076 433.475C198.348 433.475 198.616 433.487 198.88 433.511C199.144 433.535 199.392 433.571 199.624 433.619V433.043C199.624 432.603 199.512 432.287 199.288 432.095C199.064 431.903 198.704 431.807 198.208 431.807C197.84 431.807 197.516 431.823 197.236 431.855C196.956 431.879 196.676 431.923 196.396 431.987V431.135C196.716 431.055 197.04 430.999 197.368 430.967C197.704 430.935 198.084 430.919 198.508 430.919C199.22 430.919 199.748 431.087 200.092 431.423C200.436 431.751 200.608 432.263 200.608 432.959V436.967H199.708L199.66 436.415H199.636C199.396 436.607 199.084 436.763 198.7 436.883C198.324 437.003 197.948 437.063 197.572 437.063ZM198.184 434.279C197.64 434.279 197.26 434.347 197.044 434.483C196.836 434.611 196.732 434.843 196.732 435.179C196.732 435.531 196.82 435.787 196.996 435.947C197.172 436.099 197.46 436.175 197.86 436.175C198.172 436.175 198.492 436.127 198.82 436.031C199.148 435.935 199.416 435.815 199.624 435.671V434.399C199.36 434.359 199.112 434.331 198.88 434.315C198.656 434.291 198.424 434.279 198.184 434.279ZM203.13 436.967H202.146V431.039H203.046L203.094 431.543H203.142C203.454 431.359 203.766 431.223 204.078 431.135C204.39 431.039 204.698 430.991 205.002 430.991C205.13 430.991 205.214 430.991 205.254 430.991C205.302 430.991 205.338 430.995 205.362 431.003V431.951C205.306 431.935 205.234 431.927 205.146 431.927C205.066 431.919 204.938 431.915 204.762 431.915C204.474 431.915 204.19 431.951 203.91 432.023C203.638 432.087 203.378 432.187 203.13 432.323V436.967Z" fill="white"/>
<g filter="url(#filter6_dd_17_2121)">
<rect x="104" y="615" width="159" height="34" rx="15" fill="white"/>
<path d="M138.166 627.68H140.932C141.527 627.68 142.033 627.769 142.452 627.948C142.871 628.127 143.192 628.392 143.414 628.743C143.639 629.09 143.752 629.52 143.752 630.032C143.752 630.423 143.68 630.766 143.537 631.063C143.394 631.361 143.192 631.611 142.93 631.815C142.669 632.016 142.357 632.172 141.996 632.283L141.587 632.481H139.101L139.09 631.413H140.954C141.276 631.413 141.544 631.355 141.759 631.241C141.974 631.126 142.135 630.97 142.243 630.773C142.354 630.573 142.409 630.347 142.409 630.097C142.409 629.825 142.355 629.588 142.248 629.388C142.144 629.184 141.983 629.028 141.765 628.92C141.546 628.809 141.269 628.754 140.932 628.754H139.514V635.5H138.166V627.68ZM142.629 635.5L140.792 631.987L142.205 631.982L144.069 635.43V635.5H142.629ZM147.528 635.607C147.098 635.607 146.71 635.538 146.362 635.398C146.019 635.255 145.725 635.056 145.481 634.802C145.242 634.548 145.057 634.249 144.928 633.905C144.799 633.561 144.735 633.19 144.735 632.793V632.578C144.735 632.123 144.801 631.712 144.934 631.343C145.066 630.974 145.25 630.659 145.487 630.397C145.723 630.132 146.002 629.93 146.325 629.791C146.647 629.651 146.996 629.581 147.372 629.581C147.787 629.581 148.151 629.651 148.462 629.791C148.774 629.93 149.032 630.127 149.236 630.381C149.444 630.632 149.597 630.931 149.698 631.278C149.802 631.626 149.854 632.009 149.854 632.428V632.981H145.363V632.052H148.575V631.95C148.568 631.717 148.521 631.499 148.436 631.294C148.353 631.09 148.226 630.926 148.054 630.8C147.882 630.675 147.653 630.612 147.367 630.612C147.152 630.612 146.96 630.659 146.792 630.752C146.627 630.841 146.489 630.972 146.378 631.144C146.267 631.316 146.181 631.524 146.121 631.767C146.063 632.007 146.035 632.277 146.035 632.578V632.793C146.035 633.047 146.069 633.284 146.137 633.502C146.208 633.717 146.312 633.905 146.448 634.066C146.584 634.227 146.749 634.354 146.942 634.447C147.136 634.537 147.356 634.582 147.603 634.582C147.915 634.582 148.192 634.519 148.436 634.394C148.679 634.268 148.89 634.091 149.069 633.862L149.751 634.522C149.626 634.705 149.463 634.881 149.263 635.049C149.062 635.214 148.817 635.348 148.527 635.452C148.24 635.556 147.907 635.607 147.528 635.607ZM154.585 629.688H155.762V635.339C155.762 635.862 155.651 636.306 155.429 636.671C155.207 637.036 154.897 637.314 154.5 637.503C154.102 637.697 153.642 637.793 153.119 637.793C152.897 637.793 152.65 637.761 152.378 637.697C152.109 637.632 151.848 637.528 151.594 637.385C151.343 637.246 151.134 637.061 150.965 636.832L151.572 636.069C151.78 636.316 152.009 636.497 152.26 636.612C152.51 636.726 152.774 636.784 153.049 636.784C153.347 636.784 153.599 636.728 153.807 636.617C154.018 636.51 154.181 636.35 154.295 636.139C154.41 635.928 154.467 635.67 154.467 635.366V631.004L154.585 629.688ZM150.638 632.659V632.546C150.638 632.105 150.691 631.704 150.799 631.343C150.906 630.978 151.06 630.664 151.261 630.403C151.461 630.138 151.705 629.936 151.991 629.796C152.278 629.653 152.602 629.581 152.963 629.581C153.339 629.581 153.66 629.649 153.925 629.785C154.193 629.921 154.417 630.116 154.596 630.371C154.775 630.621 154.915 630.922 155.015 631.273C155.119 631.62 155.196 632.007 155.246 632.433V632.793C155.2 633.208 155.121 633.588 155.01 633.932C154.899 634.275 154.752 634.573 154.569 634.823C154.387 635.074 154.161 635.267 153.893 635.403C153.628 635.539 153.314 635.607 152.953 635.607C152.598 635.607 152.278 635.534 151.991 635.387C151.708 635.24 151.465 635.035 151.261 634.77C151.06 634.505 150.906 634.193 150.799 633.835C150.691 633.473 150.638 633.081 150.638 632.659ZM151.932 632.546V632.659C151.932 632.924 151.957 633.171 152.007 633.4C152.061 633.629 152.142 633.831 152.249 634.007C152.36 634.179 152.5 634.315 152.668 634.415C152.84 634.512 153.042 634.56 153.275 634.56C153.579 634.56 153.828 634.496 154.021 634.367C154.218 634.238 154.369 634.064 154.473 633.846C154.58 633.624 154.655 633.377 154.698 633.104V632.132C154.677 631.921 154.632 631.724 154.564 631.542C154.5 631.359 154.412 631.2 154.301 631.063C154.19 630.924 154.05 630.816 153.882 630.741C153.714 630.662 153.515 630.623 153.286 630.623C153.053 630.623 152.851 630.673 152.679 630.773C152.507 630.874 152.365 631.012 152.254 631.187C152.147 631.362 152.066 631.567 152.013 631.799C151.959 632.032 151.932 632.281 151.932 632.546ZM158.49 629.688V635.5H157.19V629.688H158.49ZM157.104 628.163C157.104 627.966 157.169 627.803 157.298 627.674C157.43 627.542 157.613 627.476 157.846 627.476C158.075 627.476 158.256 627.542 158.388 627.674C158.521 627.803 158.587 627.966 158.587 628.163C158.587 628.356 158.521 628.518 158.388 628.646C158.256 628.775 158.075 628.84 157.846 628.84C157.613 628.84 157.43 628.775 157.298 628.646C157.169 628.518 157.104 628.356 157.104 628.163ZM163.168 633.926C163.168 633.797 163.136 633.681 163.072 633.577C163.007 633.47 162.884 633.373 162.701 633.287C162.522 633.201 162.257 633.122 161.906 633.051C161.598 632.983 161.315 632.902 161.058 632.809C160.803 632.712 160.585 632.596 160.402 632.46C160.22 632.324 160.078 632.163 159.978 631.977C159.878 631.79 159.828 631.576 159.828 631.332C159.828 631.096 159.88 630.872 159.983 630.661C160.087 630.449 160.236 630.263 160.429 630.102C160.623 629.941 160.857 629.814 161.133 629.721C161.412 629.628 161.724 629.581 162.067 629.581C162.554 629.581 162.972 629.663 163.319 629.828C163.67 629.989 163.938 630.209 164.125 630.489C164.311 630.764 164.404 631.076 164.404 631.423H163.109C163.109 631.269 163.07 631.126 162.991 630.994C162.916 630.858 162.801 630.748 162.647 630.666C162.493 630.58 162.3 630.537 162.067 630.537C161.845 630.537 161.661 630.573 161.514 630.645C161.371 630.713 161.264 630.802 161.192 630.913C161.124 631.024 161.09 631.146 161.09 631.278C161.09 631.375 161.108 631.463 161.144 631.542C161.183 631.617 161.247 631.687 161.337 631.751C161.426 631.812 161.548 631.869 161.702 631.923C161.86 631.977 162.057 632.028 162.293 632.079C162.737 632.172 163.118 632.292 163.437 632.438C163.759 632.582 164.006 632.768 164.178 632.997C164.35 633.223 164.436 633.509 164.436 633.856C164.436 634.114 164.381 634.351 164.27 634.565C164.162 634.777 164.005 634.961 163.797 635.119C163.589 635.273 163.34 635.393 163.05 635.479C162.764 635.564 162.442 635.607 162.083 635.607C161.557 635.607 161.111 635.514 160.746 635.328C160.381 635.138 160.103 634.897 159.914 634.603C159.727 634.306 159.634 633.998 159.634 633.679H160.886C160.9 633.919 160.966 634.111 161.084 634.254C161.206 634.394 161.357 634.496 161.536 634.56C161.718 634.621 161.906 634.651 162.1 634.651C162.332 634.651 162.528 634.621 162.685 634.56C162.843 634.496 162.963 634.41 163.045 634.302C163.127 634.191 163.168 634.066 163.168 633.926ZM168.233 629.688V630.634H164.957V629.688H168.233ZM165.902 628.265H167.197V633.894C167.197 634.073 167.222 634.211 167.272 634.308C167.326 634.401 167.399 634.463 167.492 634.496C167.585 634.528 167.694 634.544 167.82 634.544C167.909 634.544 167.995 634.539 168.078 634.528C168.16 634.517 168.226 634.506 168.276 634.496L168.282 635.484C168.174 635.516 168.049 635.545 167.906 635.57C167.766 635.595 167.605 635.607 167.422 635.607C167.125 635.607 166.862 635.556 166.633 635.452C166.404 635.344 166.225 635.171 166.096 634.931C165.967 634.691 165.902 634.372 165.902 633.975V628.265ZM170.532 630.795V635.5H169.238V629.688H170.473L170.532 630.795ZM172.31 629.651L172.299 630.854C172.221 630.84 172.135 630.829 172.042 630.822C171.952 630.815 171.862 630.811 171.773 630.811C171.551 630.811 171.356 630.843 171.188 630.908C171.019 630.969 170.878 631.058 170.763 631.176C170.652 631.291 170.566 631.431 170.505 631.595C170.444 631.76 170.409 631.944 170.398 632.148L170.103 632.17C170.103 631.805 170.138 631.466 170.21 631.155C170.282 630.843 170.389 630.569 170.532 630.333C170.679 630.097 170.862 629.912 171.08 629.78C171.302 629.647 171.558 629.581 171.848 629.581C171.927 629.581 172.011 629.588 172.101 629.603C172.194 629.617 172.264 629.633 172.31 629.651ZM176.204 634.334V631.563C176.204 631.355 176.167 631.176 176.091 631.026C176.016 630.875 175.902 630.759 175.748 630.677C175.597 630.594 175.407 630.553 175.178 630.553C174.967 630.553 174.784 630.589 174.63 630.661C174.476 630.732 174.356 630.829 174.271 630.951C174.185 631.072 174.142 631.21 174.142 631.364H172.853C172.853 631.135 172.908 630.913 173.019 630.698C173.13 630.483 173.291 630.292 173.502 630.124C173.714 629.955 173.966 629.823 174.26 629.726C174.553 629.629 174.883 629.581 175.248 629.581C175.685 629.581 176.072 629.654 176.408 629.801C176.748 629.948 177.015 630.17 177.208 630.467C177.405 630.761 177.504 631.13 177.504 631.574V634.157C177.504 634.422 177.522 634.66 177.558 634.872C177.597 635.079 177.653 635.26 177.724 635.414V635.5H176.397C176.337 635.36 176.288 635.183 176.252 634.968C176.22 634.75 176.204 634.539 176.204 634.334ZM176.392 631.966L176.403 632.766H175.474C175.234 632.766 175.022 632.789 174.84 632.836C174.657 632.879 174.505 632.943 174.383 633.029C174.262 633.115 174.17 633.219 174.109 633.341C174.049 633.463 174.018 633.6 174.018 633.754C174.018 633.908 174.054 634.05 174.125 634.179C174.197 634.304 174.301 634.403 174.437 634.474C174.577 634.546 174.745 634.582 174.942 634.582C175.207 634.582 175.438 634.528 175.635 634.42C175.835 634.309 175.993 634.175 176.107 634.018C176.222 633.856 176.283 633.704 176.29 633.561L176.709 634.136C176.666 634.283 176.593 634.44 176.489 634.608C176.385 634.777 176.249 634.938 176.081 635.092C175.916 635.242 175.717 635.366 175.484 635.462C175.255 635.559 174.99 635.607 174.689 635.607C174.31 635.607 173.972 635.532 173.674 635.382C173.377 635.228 173.144 635.022 172.976 634.764C172.808 634.503 172.724 634.207 172.724 633.878C172.724 633.57 172.781 633.298 172.896 633.062C173.014 632.822 173.186 632.621 173.411 632.46C173.64 632.299 173.92 632.177 174.249 632.095C174.578 632.009 174.954 631.966 175.377 631.966H176.392ZM180.157 630.795V635.5H178.863V629.688H180.098L180.157 630.795ZM181.935 629.651L181.924 630.854C181.846 630.84 181.76 630.829 181.667 630.822C181.577 630.815 181.487 630.811 181.398 630.811C181.176 630.811 180.981 630.843 180.812 630.908C180.644 630.969 180.503 631.058 180.388 631.176C180.277 631.291 180.191 631.431 180.13 631.595C180.069 631.76 180.034 631.944 180.023 632.148L179.728 632.17C179.728 631.805 179.763 631.466 179.835 631.155C179.907 630.843 180.014 630.569 180.157 630.333C180.304 630.097 180.487 629.912 180.705 629.78C180.927 629.647 181.183 629.581 181.473 629.581C181.552 629.581 181.636 629.588 181.726 629.603C181.819 629.617 181.889 629.633 181.935 629.651ZM187.859 634.576C188.071 634.576 188.26 634.535 188.429 634.453C188.601 634.367 188.738 634.249 188.842 634.098C188.95 633.948 189.009 633.774 189.02 633.577H190.239C190.232 633.953 190.121 634.295 189.906 634.603C189.691 634.911 189.406 635.156 189.052 635.339C188.697 635.518 188.305 635.607 187.875 635.607C187.431 635.607 187.045 635.532 186.715 635.382C186.386 635.228 186.112 635.017 185.894 634.748C185.675 634.479 185.51 634.17 185.399 633.819C185.292 633.468 185.238 633.092 185.238 632.691V632.503C185.238 632.102 185.292 631.726 185.399 631.375C185.51 631.021 185.675 630.709 185.894 630.44C186.112 630.172 186.386 629.962 186.715 629.812C187.045 629.658 187.43 629.581 187.87 629.581C188.336 629.581 188.744 629.674 189.095 629.86C189.446 630.043 189.721 630.299 189.922 630.628C190.126 630.954 190.232 631.334 190.239 631.767H189.02C189.009 631.552 188.955 631.359 188.858 631.187C188.765 631.012 188.633 630.872 188.461 630.768C188.293 630.664 188.09 630.612 187.854 630.612C187.593 630.612 187.376 630.666 187.204 630.773C187.032 630.877 186.898 631.021 186.801 631.203C186.705 631.382 186.635 631.584 186.592 631.81C186.552 632.032 186.533 632.263 186.533 632.503V632.691C186.533 632.931 186.552 633.164 186.592 633.389C186.631 633.615 186.699 633.817 186.796 633.996C186.896 634.172 187.032 634.313 187.204 634.42C187.376 634.524 187.594 634.576 187.859 634.576ZM190.985 632.659V632.535C190.985 632.116 191.046 631.728 191.168 631.37C191.29 631.008 191.465 630.695 191.694 630.43C191.927 630.161 192.21 629.953 192.543 629.807C192.88 629.656 193.259 629.581 193.682 629.581C194.108 629.581 194.487 629.656 194.82 629.807C195.157 629.953 195.442 630.161 195.674 630.43C195.907 630.695 196.084 631.008 196.206 631.37C196.328 631.728 196.389 632.116 196.389 632.535V632.659C196.389 633.078 196.328 633.466 196.206 633.824C196.084 634.182 195.907 634.496 195.674 634.764C195.442 635.029 195.159 635.237 194.826 635.387C194.493 635.534 194.115 635.607 193.692 635.607C193.266 635.607 192.885 635.534 192.548 635.387C192.215 635.237 191.932 635.029 191.7 634.764C191.467 634.496 191.29 634.182 191.168 633.824C191.046 633.466 190.985 633.078 190.985 632.659ZM192.28 632.535V632.659C192.28 632.92 192.307 633.167 192.36 633.4C192.414 633.633 192.498 633.837 192.613 634.012C192.727 634.188 192.874 634.326 193.053 634.426C193.232 634.526 193.445 634.576 193.692 634.576C193.932 634.576 194.14 634.526 194.315 634.426C194.494 634.326 194.641 634.188 194.756 634.012C194.87 633.837 194.955 633.633 195.008 633.4C195.066 633.167 195.094 632.92 195.094 632.659V632.535C195.094 632.277 195.066 632.034 195.008 631.805C194.955 631.572 194.869 631.366 194.75 631.187C194.636 631.008 194.489 630.868 194.31 630.768C194.135 630.664 193.925 630.612 193.682 630.612C193.438 630.612 193.227 630.664 193.048 630.768C192.872 630.868 192.727 631.008 192.613 631.187C192.498 631.366 192.414 631.572 192.36 631.805C192.307 632.034 192.28 632.277 192.28 632.535ZM198.768 630.87V635.5H197.474V629.688H198.693L198.768 630.87ZM198.559 632.379L198.118 632.374C198.118 631.973 198.168 631.602 198.269 631.262C198.369 630.922 198.516 630.627 198.709 630.376C198.902 630.122 199.142 629.927 199.429 629.791C199.719 629.651 200.054 629.581 200.433 629.581C200.698 629.581 200.94 629.62 201.158 629.699C201.38 629.774 201.572 629.894 201.733 630.059C201.898 630.224 202.023 630.435 202.109 630.693C202.198 630.951 202.243 631.262 202.243 631.627V635.5H200.949V631.74C200.949 631.457 200.906 631.235 200.82 631.074C200.737 630.913 200.618 630.799 200.46 630.73C200.306 630.659 200.122 630.623 199.907 630.623C199.663 630.623 199.456 630.67 199.284 630.763C199.115 630.856 198.978 630.983 198.87 631.144C198.763 631.305 198.684 631.491 198.634 631.703C198.584 631.914 198.559 632.139 198.559 632.379ZM202.163 632.036L201.556 632.17C201.556 631.819 201.604 631.488 201.701 631.176C201.801 630.861 201.946 630.585 202.136 630.349C202.329 630.109 202.567 629.921 202.85 629.785C203.133 629.649 203.457 629.581 203.822 629.581C204.119 629.581 204.384 629.622 204.617 629.705C204.854 629.783 205.054 629.909 205.219 630.081C205.383 630.252 205.509 630.476 205.595 630.752C205.681 631.024 205.724 631.354 205.724 631.74V635.5H204.424V631.735C204.424 631.441 204.381 631.214 204.295 631.053C204.213 630.892 204.094 630.781 203.94 630.72C203.786 630.655 203.602 630.623 203.387 630.623C203.187 630.623 203.009 630.661 202.855 630.736C202.705 630.807 202.578 630.91 202.474 631.042C202.37 631.171 202.292 631.319 202.238 631.488C202.188 631.656 202.163 631.839 202.163 632.036ZM209.548 632.659V632.535C209.548 632.116 209.609 631.728 209.73 631.37C209.852 631.008 210.028 630.695 210.257 630.43C210.49 630.161 210.772 629.953 211.105 629.807C211.442 629.656 211.822 629.581 212.244 629.581C212.67 629.581 213.05 629.656 213.383 629.807C213.719 629.953 214.004 630.161 214.237 630.43C214.47 630.695 214.647 631.008 214.769 631.37C214.89 631.728 214.951 632.116 214.951 632.535V632.659C214.951 633.078 214.89 633.466 214.769 633.824C214.647 634.182 214.47 634.496 214.237 634.764C214.004 635.029 213.721 635.237 213.388 635.387C213.055 635.534 212.677 635.607 212.255 635.607C211.829 635.607 211.447 635.534 211.111 635.387C210.778 635.237 210.495 635.029 210.262 634.764C210.029 634.496 209.852 634.182 209.73 633.824C209.609 633.466 209.548 633.078 209.548 632.659ZM210.842 632.535V632.659C210.842 632.92 210.869 633.167 210.923 633.4C210.977 633.633 211.061 633.837 211.175 634.012C211.29 634.188 211.437 634.326 211.616 634.426C211.795 634.526 212.008 634.576 212.255 634.576C212.495 634.576 212.702 634.526 212.878 634.426C213.057 634.326 213.204 634.188 213.318 634.012C213.433 633.837 213.517 633.633 213.571 633.4C213.628 633.167 213.657 632.92 213.657 632.659V632.535C213.657 632.277 213.628 632.034 213.571 631.805C213.517 631.572 213.431 631.366 213.313 631.187C213.198 631.008 213.052 630.868 212.873 630.768C212.697 630.664 212.488 630.612 212.244 630.612C212.001 630.612 211.789 630.664 211.61 630.768C211.435 630.868 211.29 631.008 211.175 631.187C211.061 631.366 210.977 631.572 210.923 631.805C210.869 632.034 210.842 632.277 210.842 632.535ZM224.909 631.504V634.49C224.798 634.637 224.625 634.798 224.388 634.974C224.155 635.146 223.846 635.294 223.459 635.419C223.072 635.545 222.591 635.607 222.014 635.607C221.524 635.607 221.074 635.525 220.666 635.36C220.258 635.192 219.905 634.947 219.608 634.625C219.314 634.302 219.087 633.91 218.926 633.448C218.765 632.983 218.684 632.453 218.684 631.858V631.316C218.684 630.725 218.757 630.199 218.904 629.737C219.055 629.271 219.27 628.877 219.549 628.555C219.828 628.233 220.165 627.989 220.559 627.825C220.956 627.656 221.405 627.572 221.907 627.572C222.548 627.572 223.078 627.68 223.497 627.895C223.919 628.106 224.245 628.399 224.474 628.775C224.703 629.151 224.848 629.581 224.909 630.064H223.588C223.545 629.792 223.461 629.549 223.335 629.334C223.214 629.119 223.038 628.951 222.809 628.829C222.583 628.704 222.29 628.641 221.928 628.641C221.617 628.641 221.343 628.7 221.106 628.818C220.87 628.937 220.673 629.11 220.516 629.339C220.362 629.569 220.245 629.848 220.167 630.177C220.088 630.507 220.048 630.883 220.048 631.305V631.858C220.048 632.288 220.093 632.669 220.183 633.002C220.276 633.335 220.408 633.617 220.58 633.846C220.756 634.075 220.969 634.249 221.219 634.367C221.47 634.481 221.753 634.539 222.068 634.539C222.376 634.539 222.628 634.514 222.825 634.463C223.022 634.41 223.178 634.347 223.292 634.275C223.411 634.2 223.502 634.129 223.566 634.061V632.508H221.939V631.504H224.909ZM226.026 632.659V632.535C226.026 632.116 226.087 631.728 226.209 631.37C226.331 631.008 226.506 630.695 226.735 630.43C226.968 630.161 227.251 629.953 227.584 629.807C227.921 629.656 228.3 629.581 228.723 629.581C229.149 629.581 229.528 629.656 229.861 629.807C230.198 629.953 230.483 630.161 230.715 630.43C230.948 630.695 231.125 631.008 231.247 631.37C231.369 631.728 231.43 632.116 231.43 632.535V632.659C231.43 633.078 231.369 633.466 231.247 633.824C231.125 634.182 230.948 634.496 230.715 634.764C230.483 635.029 230.2 635.237 229.867 635.387C229.534 635.534 229.156 635.607 228.733 635.607C228.307 635.607 227.926 635.534 227.589 635.387C227.256 635.237 226.973 635.029 226.741 634.764C226.508 634.496 226.331 634.182 226.209 633.824C226.087 633.466 226.026 633.078 226.026 632.659ZM227.321 632.535V632.659C227.321 632.92 227.348 633.167 227.401 633.4C227.455 633.633 227.539 633.837 227.654 634.012C227.768 634.188 227.915 634.326 228.094 634.426C228.273 634.526 228.486 634.576 228.733 634.576C228.973 634.576 229.181 634.526 229.356 634.426C229.535 634.326 229.682 634.188 229.797 634.012C229.911 633.837 229.996 633.633 230.049 633.4C230.107 633.167 230.135 632.92 230.135 632.659V632.535C230.135 632.277 230.107 632.034 230.049 631.805C229.996 631.572 229.91 631.366 229.792 631.187C229.677 631.008 229.53 630.868 229.351 630.768C229.176 630.664 228.966 630.612 228.723 630.612C228.479 630.612 228.268 630.664 228.089 630.768C227.913 630.868 227.768 631.008 227.654 631.187C227.539 631.366 227.455 631.572 227.401 631.805C227.348 632.034 227.321 632.277 227.321 632.535ZM232.268 632.659V632.535C232.268 632.116 232.328 631.728 232.45 631.37C232.572 631.008 232.747 630.695 232.977 630.43C233.209 630.161 233.492 629.953 233.825 629.807C234.162 629.656 234.541 629.581 234.964 629.581C235.39 629.581 235.77 629.656 236.103 629.807C236.439 629.953 236.724 630.161 236.957 630.43C237.189 630.695 237.367 631.008 237.488 631.37C237.61 631.728 237.671 632.116 237.671 632.535V632.659C237.671 633.078 237.61 633.466 237.488 633.824C237.367 634.182 237.189 634.496 236.957 634.764C236.724 635.029 236.441 635.237 236.108 635.387C235.775 635.534 235.397 635.607 234.975 635.607C234.549 635.607 234.167 635.534 233.831 635.387C233.498 635.237 233.215 635.029 232.982 634.764C232.749 634.496 232.572 634.182 232.45 633.824C232.328 633.466 232.268 633.078 232.268 632.659ZM233.562 632.535V632.659C233.562 632.92 233.589 633.167 233.643 633.4C233.696 633.633 233.78 633.837 233.895 634.012C234.01 634.188 234.156 634.326 234.335 634.426C234.514 634.526 234.728 634.576 234.975 634.576C235.215 634.576 235.422 634.526 235.598 634.426C235.777 634.326 235.924 634.188 236.038 634.012C236.153 633.837 236.237 633.633 236.291 633.4C236.348 633.167 236.376 632.92 236.376 632.659V632.535C236.376 632.277 236.348 632.034 236.291 631.805C236.237 631.572 236.151 631.366 236.033 631.187C235.918 631.008 235.771 630.868 235.592 630.768C235.417 630.664 235.207 630.612 234.964 630.612C234.72 630.612 234.509 630.664 234.33 630.768C234.155 630.868 234.01 631.008 233.895 631.187C233.78 631.366 233.696 631.572 233.643 631.805C233.589 632.034 233.562 632.277 233.562 632.535ZM242.478 629.688H243.654V635.339C243.654 635.862 243.543 636.306 243.321 636.671C243.099 637.036 242.79 637.314 242.392 637.503C241.995 637.697 241.535 637.793 241.012 637.793C240.79 637.793 240.543 637.761 240.271 637.697C240.002 637.632 239.741 637.528 239.486 637.385C239.236 637.246 239.026 637.061 238.858 636.832L239.465 636.069C239.673 636.316 239.902 636.497 240.152 636.612C240.403 636.726 240.666 636.784 240.942 636.784C241.239 636.784 241.492 636.728 241.699 636.617C241.91 636.51 242.073 636.35 242.188 636.139C242.303 635.928 242.36 635.67 242.36 635.366V631.004L242.478 629.688ZM238.53 632.659V632.546C238.53 632.105 238.584 631.704 238.691 631.343C238.799 630.978 238.953 630.664 239.153 630.403C239.354 630.138 239.597 629.936 239.884 629.796C240.17 629.653 240.494 629.581 240.856 629.581C241.232 629.581 241.552 629.649 241.817 629.785C242.086 629.921 242.31 630.116 242.489 630.371C242.668 630.621 242.807 630.922 242.908 631.273C243.012 631.62 243.089 632.007 243.139 632.433V632.793C243.092 633.208 243.013 633.588 242.902 633.932C242.791 634.275 242.645 634.573 242.462 634.823C242.279 635.074 242.054 635.267 241.785 635.403C241.52 635.539 241.207 635.607 240.845 635.607C240.491 635.607 240.17 635.534 239.884 635.387C239.601 635.24 239.357 635.035 239.153 634.77C238.953 634.505 238.799 634.193 238.691 633.835C238.584 633.473 238.53 633.081 238.53 632.659ZM239.825 632.546V632.659C239.825 632.924 239.85 633.171 239.9 633.4C239.954 633.629 240.034 633.831 240.142 634.007C240.253 634.179 240.392 634.315 240.561 634.415C240.732 634.512 240.935 634.56 241.167 634.56C241.472 634.56 241.721 634.496 241.914 634.367C242.111 634.238 242.261 634.064 242.365 633.846C242.473 633.624 242.548 633.377 242.591 633.104V632.132C242.569 631.921 242.525 631.724 242.457 631.542C242.392 631.359 242.304 631.2 242.193 631.063C242.082 630.924 241.943 630.816 241.774 630.741C241.606 630.662 241.407 630.623 241.178 630.623C240.945 630.623 240.743 630.673 240.571 630.773C240.399 630.874 240.258 631.012 240.147 631.187C240.04 631.362 239.959 631.567 239.905 631.799C239.852 632.032 239.825 632.281 239.825 632.546ZM246.383 627.25V635.5H245.083V627.25H246.383ZM250.363 635.607C249.933 635.607 249.545 635.538 249.197 635.398C248.854 635.255 248.56 635.056 248.316 634.802C248.076 634.548 247.892 634.249 247.763 633.905C247.634 633.561 247.57 633.19 247.57 632.793V632.578C247.57 632.123 247.636 631.712 247.769 631.343C247.901 630.974 248.085 630.659 248.322 630.397C248.558 630.132 248.837 629.93 249.16 629.791C249.482 629.651 249.831 629.581 250.207 629.581C250.622 629.581 250.986 629.651 251.297 629.791C251.609 629.93 251.867 630.127 252.071 630.381C252.278 630.632 252.432 630.931 252.533 631.278C252.637 631.626 252.688 632.009 252.688 632.428V632.981H248.198V632.052H251.41V631.95C251.403 631.717 251.356 631.499 251.271 631.294C251.188 631.09 251.061 630.926 250.889 630.8C250.717 630.675 250.488 630.612 250.202 630.612C249.987 630.612 249.795 630.659 249.627 630.752C249.462 630.841 249.324 630.972 249.213 631.144C249.102 631.316 249.016 631.524 248.956 631.767C248.898 632.007 248.87 632.277 248.87 632.578V632.793C248.87 633.047 248.904 633.284 248.972 633.502C249.043 633.717 249.147 633.905 249.283 634.066C249.419 634.227 249.584 634.354 249.777 634.447C249.971 634.537 250.191 634.582 250.438 634.582C250.75 634.582 251.027 634.519 251.271 634.394C251.514 634.268 251.725 634.091 251.904 633.862L252.586 634.522C252.461 634.705 252.298 634.881 252.098 635.049C251.897 635.214 251.652 635.348 251.362 635.452C251.075 635.556 250.742 635.607 250.363 635.607Z" fill="#757575"/>
</g>
<path fill-rule="evenodd" clip-rule="evenodd" d="M131.608 632.594C131.608 631.988 131.554 631.405 131.453 630.845H123.4V634.153H128.001C127.803 635.222 127.201 636.127 126.295 636.733V638.879H129.059C130.675 637.39 131.608 635.198 131.608 632.594Z" fill="#4285F4"/>
<path fill-rule="evenodd" clip-rule="evenodd" d="M123.4 640.95C125.708 640.95 127.644 640.184 129.059 638.879L126.295 636.733C125.53 637.246 124.55 637.549 123.4 637.549C121.173 637.549 119.288 636.045 118.616 634.024H115.759V636.24C117.166 639.034 120.058 640.95 123.4 640.95Z" fill="#34A853"/>
<path fill-rule="evenodd" clip-rule="evenodd" d="M118.616 634.025C118.445 633.512 118.348 632.964 118.348 632.4C118.348 631.836 118.445 631.289 118.616 630.776V628.56H115.759C115.18 629.715 114.85 631.02 114.85 632.4C114.85 633.78 115.18 635.085 115.759 636.24L118.616 634.025Z" fill="#FBBC05"/>
<path fill-rule="evenodd" clip-rule="evenodd" d="M123.4 627.251C124.655 627.251 125.782 627.682 126.668 628.529L129.121 626.077C127.64 624.697 125.705 623.85 123.4 623.85C120.058 623.85 117.166 625.766 115.759 628.56L118.616 630.775C119.288 628.755 121.173 627.251 123.4 627.251Z" fill="#EA4335"/>
<path d="M150.248 552.22C150.248 553.588 149.984 554.576 149.456 555.184C148.936 555.792 148.084 556.096 146.9 556.096C145.628 556.096 144.748 555.816 144.26 555.256C143.78 554.688 143.54 553.676 143.54 552.22C143.54 550.86 143.804 549.876 144.332 549.268C144.86 548.66 145.716 548.356 146.9 548.356C148.172 548.356 149.048 548.64 149.528 549.208C150.008 549.768 150.248 550.772 150.248 552.22ZM144.932 554.392C145.084 554.664 145.308 554.856 145.604 554.968C145.9 555.08 146.332 555.136 146.9 555.136C147.788 555.136 148.396 554.924 148.724 554.5C149.052 554.068 149.216 553.308 149.216 552.22C149.216 551.676 149.188 551.232 149.132 550.888C149.076 550.536 148.988 550.252 148.868 550.036C148.716 549.764 148.492 549.572 148.196 549.46C147.908 549.34 147.476 549.28 146.9 549.28C146.004 549.28 145.392 549.496 145.064 549.928C144.736 550.36 144.572 551.124 144.572 552.22C144.572 552.764 144.6 553.212 144.656 553.564C144.712 553.908 144.804 554.184 144.932 554.392ZM153.505 556.096C152.849 556.096 152.357 555.932 152.029 555.604C151.701 555.276 151.537 554.784 151.537 554.128V550.072H152.521V554.008C152.521 554.416 152.625 554.712 152.833 554.896C153.041 555.08 153.369 555.172 153.817 555.172C154.089 555.172 154.361 555.14 154.633 555.076C154.913 555.004 155.193 554.896 155.473 554.752V550.072H156.457V556H155.557L155.509 555.508H155.485C155.069 555.724 154.709 555.876 154.405 555.964C154.101 556.052 153.801 556.096 153.505 556.096ZM161.077 556H160.093V550.072H160.993L161.041 550.576H161.089C161.401 550.392 161.713 550.256 162.025 550.168C162.337 550.072 162.645 550.024 162.949 550.024C163.077 550.024 163.161 550.024 163.201 550.024C163.249 550.024 163.285 550.028 163.309 550.036V550.984C163.253 550.968 163.181 550.96 163.093 550.96C163.013 550.952 162.885 550.948 162.709 550.948C162.421 550.948 162.137 550.984 161.857 551.056C161.585 551.12 161.325 551.22 161.077 551.356V556ZM168.623 554.848V555.676C168.415 555.788 168.107 555.888 167.699 555.976C167.299 556.056 166.891 556.096 166.475 556.096C165.547 556.096 164.883 555.856 164.483 555.376C164.083 554.896 163.883 554.104 163.883 553C163.883 551.936 164.091 551.164 164.507 550.684C164.923 550.196 165.587 549.952 166.499 549.952C167.347 549.952 167.955 550.144 168.323 550.528C168.691 550.904 168.875 551.536 168.875 552.424C168.875 552.584 168.871 552.732 168.863 552.868C168.855 553.004 168.839 553.168 168.815 553.36H164.879C164.887 554.016 165.019 554.484 165.275 554.764C165.539 555.044 165.991 555.184 166.631 555.184C166.975 555.184 167.335 555.152 167.711 555.088C168.087 555.024 168.391 554.944 168.623 554.848ZM167.975 552.292C167.967 551.764 167.851 551.392 167.627 551.176C167.403 550.952 167.027 550.84 166.499 550.84C165.907 550.84 165.487 550.968 165.239 551.224C164.999 551.472 164.879 551.912 164.879 552.544H167.963C167.963 552.528 167.963 552.492 167.963 552.436C167.971 552.372 167.975 552.324 167.975 552.292ZM172.559 557.944C172.159 557.944 171.783 557.916 171.431 557.86C171.087 557.812 170.803 557.744 170.579 557.656V556.78C170.763 556.852 171.031 556.912 171.383 556.96C171.743 557.008 172.099 557.032 172.451 557.032C173.051 557.032 173.467 556.912 173.699 556.672C173.931 556.44 174.047 556.024 174.047 555.424V555.052C173.751 555.228 173.435 555.364 173.099 555.46C172.763 555.548 172.423 555.592 172.079 555.592C171.287 555.592 170.719 555.372 170.375 554.932C170.039 554.492 169.871 553.772 169.871 552.772C169.871 551.756 170.087 551.032 170.519 550.6C170.959 550.168 171.703 549.952 172.751 549.952C173.127 549.952 173.531 549.976 173.963 550.024C174.395 550.064 174.751 550.116 175.031 550.18V555.148C175.031 556.188 174.847 556.912 174.479 557.32C174.111 557.736 173.471 557.944 172.559 557.944ZM172.751 550.84C171.983 550.84 171.475 550.972 171.227 551.236C170.979 551.5 170.855 552.012 170.855 552.772C170.855 553.492 170.959 553.992 171.167 554.272C171.383 554.544 171.795 554.68 172.403 554.68C172.667 554.68 172.939 554.644 173.219 554.572C173.507 554.492 173.783 554.384 174.047 554.248V550.972C173.855 550.932 173.647 550.9 173.423 550.876C173.207 550.852 172.983 550.84 172.751 550.84ZM177.625 549.04H176.569V548.02H177.625V549.04ZM177.589 556H176.604V550.072H177.589V556ZM181.211 550.84C180.699 550.84 180.343 550.9 180.143 551.02C179.951 551.14 179.855 551.384 179.855 551.752C179.855 551.944 179.899 552.092 179.987 552.196C180.083 552.292 180.231 552.356 180.431 552.388L181.955 552.616C182.435 552.688 182.771 552.84 182.963 553.072C183.155 553.296 183.251 553.652 183.251 554.14C183.251 554.828 183.087 555.328 182.759 555.64C182.431 555.944 181.887 556.096 181.127 556.096C180.671 556.096 180.247 556.072 179.855 556.024C179.463 555.976 179.139 555.912 178.883 555.832V554.908C179.139 554.988 179.451 555.056 179.819 555.112C180.195 555.16 180.579 555.184 180.971 555.184C181.467 555.184 181.807 555.112 181.991 554.968C182.175 554.824 182.267 554.568 182.267 554.2C182.267 553.968 182.215 553.8 182.111 553.696C182.007 553.584 181.819 553.508 181.547 553.468L180.023 553.24C179.639 553.184 179.351 553.036 179.159 552.796C178.975 552.556 178.879 552.208 178.871 551.752C178.871 551.128 179.055 550.672 179.423 550.384C179.799 550.096 180.375 549.952 181.151 549.952C181.471 549.952 181.759 549.96 182.015 549.976C182.279 549.992 182.555 550.024 182.843 550.072V550.948C182.635 550.916 182.391 550.892 182.111 550.876C181.831 550.852 181.531 550.84 181.211 550.84ZM187.866 555.076V555.904C187.738 555.96 187.562 556.004 187.338 556.036C187.122 556.076 186.914 556.096 186.714 556.096C185.994 556.096 185.478 555.936 185.166 555.616C184.862 555.296 184.71 554.744 184.71 553.96V550.912H183.822V550.072H184.722L184.878 548.632H185.694V550.072H187.806V550.912H185.694V553.924C185.694 554.412 185.782 554.744 185.958 554.92C186.142 555.096 186.462 555.184 186.918 555.184C187.062 555.184 187.226 555.172 187.41 555.148C187.602 555.124 187.754 555.1 187.866 555.076ZM189.823 556H188.839V550.072H189.739L189.787 550.576H189.835C190.147 550.392 190.459 550.256 190.771 550.168C191.083 550.072 191.391 550.024 191.695 550.024C191.823 550.024 191.907 550.024 191.947 550.024C191.995 550.024 192.031 550.028 192.055 550.036V550.984C191.999 550.968 191.927 550.96 191.839 550.96C191.759 550.952 191.631 550.948 191.455 550.948C191.167 550.948 190.883 550.984 190.603 551.056C190.331 551.12 190.071 551.22 189.823 551.356V556ZM197.369 554.848V555.676C197.161 555.788 196.853 555.888 196.445 555.976C196.045 556.056 195.637 556.096 195.221 556.096C194.293 556.096 193.629 555.856 193.229 555.376C192.829 554.896 192.629 554.104 192.629 553C192.629 551.936 192.837 551.164 193.253 550.684C193.669 550.196 194.333 549.952 195.245 549.952C196.093 549.952 196.701 550.144 197.069 550.528C197.437 550.904 197.621 551.536 197.621 552.424C197.621 552.584 197.617 552.732 197.609 552.868C197.601 553.004 197.585 553.168 197.561 553.36H193.625C193.633 554.016 193.765 554.484 194.021 554.764C194.285 555.044 194.737 555.184 195.377 555.184C195.721 555.184 196.081 555.152 196.457 555.088C196.833 555.024 197.137 554.944 197.369 554.848ZM196.721 552.292C196.713 551.764 196.597 551.392 196.373 551.176C196.149 550.952 195.773 550.84 195.245 550.84C194.653 550.84 194.233 550.968 193.985 551.224C193.745 551.472 193.625 551.912 193.625 552.544H196.709C196.709 552.528 196.709 552.492 196.709 552.436C196.717 552.372 196.721 552.324 196.721 552.292ZM202.59 551.8V552.568H198.762V551.8H202.59ZM206.078 550.84C205.566 550.84 205.21 550.9 205.01 551.02C204.818 551.14 204.722 551.384 204.722 551.752C204.722 551.944 204.766 552.092 204.854 552.196C204.95 552.292 205.098 552.356 205.298 552.388L206.822 552.616C207.302 552.688 207.638 552.84 207.83 553.072C208.022 553.296 208.118 553.652 208.118 554.14C208.118 554.828 207.954 555.328 207.626 555.64C207.298 555.944 206.754 556.096 205.994 556.096C205.538 556.096 205.114 556.072 204.722 556.024C204.33 555.976 204.006 555.912 203.75 555.832V554.908C204.006 554.988 204.318 555.056 204.686 555.112C205.062 555.16 205.446 555.184 205.838 555.184C206.334 555.184 206.674 555.112 206.858 554.968C207.042 554.824 207.134 554.568 207.134 554.2C207.134 553.968 207.082 553.8 206.978 553.696C206.874 553.584 206.686 553.508 206.414 553.468L204.89 553.24C204.506 553.184 204.218 553.036 204.026 552.796C203.842 552.556 203.746 552.208 203.738 551.752C203.738 551.128 203.922 550.672 204.29 550.384C204.666 550.096 205.242 549.952 206.018 549.952C206.338 549.952 206.626 549.96 206.882 549.976C207.146 549.992 207.422 550.024 207.71 550.072V550.948C207.502 550.916 207.258 550.892 206.978 550.876C206.698 550.852 206.398 550.84 206.078 550.84ZM213.764 554.848V555.676C213.556 555.788 213.248 555.888 212.84 555.976C212.44 556.056 212.032 556.096 211.616 556.096C210.688 556.096 210.024 555.856 209.624 555.376C209.224 554.896 209.024 554.104 209.024 553C209.024 551.936 209.232 551.164 209.648 550.684C210.064 550.196 210.728 549.952 211.64 549.952C212.488 549.952 213.096 550.144 213.464 550.528C213.832 550.904 214.016 551.536 214.016 552.424C214.016 552.584 214.012 552.732 214.004 552.868C213.996 553.004 213.98 553.168 213.956 553.36H210.02C210.028 554.016 210.16 554.484 210.416 554.764C210.68 555.044 211.132 555.184 211.772 555.184C212.116 555.184 212.476 555.152 212.852 555.088C213.228 555.024 213.532 554.944 213.764 554.848ZM213.116 552.292C213.108 551.764 212.992 551.392 212.768 551.176C212.544 550.952 212.168 550.84 211.64 550.84C211.048 550.84 210.628 550.968 210.38 551.224C210.14 551.472 210.02 551.912 210.02 552.544H213.104C213.104 552.528 213.104 552.492 213.104 552.436C213.112 552.372 213.116 552.324 213.116 552.292Z" fill="#7A7A7A"/>
</g>
<defs>
<filter id="filter0_b_17_2121" x="-100" y="-100" width="560" height="1019.2" filterUnits="userSpaceOnUse" color-interpolation-filters="sRGB">
<feFlood flood-opacity="0" result="BackgroundImageFix"/>
<feGaussianBlur in="BackgroundImageFix" stdDeviation="50"/>
<feComposite in2="SourceAlpha" operator="in" result="effect1_backgroundBlur_17_2121"/>
<feBlend mode="normal" in="SourceGraphic" in2="effect1_backgroundBlur_17_2121" result="shape"/>
</filter>
<filter id="filter1_d_17_2121" x="18.0532" y="158.777" width="323.873" height="54" filterUnits="userSpaceOnUse" color-interpolation-filters="sRGB">
<feFlood flood-opacity="0" result="BackgroundImageFix"/>
<feColorMatrix in="SourceAlpha" type="matrix" values="0 0 0 0 0 0 0 0 0 0 0 0 0 0 0 0 0 0 127 0" result="hardAlpha"/>
<feMorphology radius="1" operator="dilate" in="SourceAlpha" result="effect1_dropShadow_17_2121"/>
<feOffset dy="3"/>
<feGaussianBlur stdDeviation="3"/>
<feComposite in2="hardAlpha" operator="out"/>
<feColorMatrix type="matrix" values="0 0 0 0 0 0 0 0 0 0 0 0 0 0 0 0 0 0 0.05 0"/>
<feBlend mode="normal" in2="BackgroundImageFix" result="effect1_dropShadow_17_2121"/>
<feBlend mode="normal" in="SourceGraphic" in2="effect1_dropShadow_17_2121" result="shape"/>
</filter>
<filter id="filter2_d_17_2121" x="18.2401" y="278.015" width="323.873" height="54" filterUnits="userSpaceOnUse" color-interpolation-filters="sRGB">
<feFlood flood-opacity="0" result="BackgroundImageFix"/>
<feColorMatrix in="SourceAlpha" type="matrix" values="0 0 0 0 0 0 0 0 0 0 0 0 0 0 0 0 0 0 127 0" result="hardAlpha"/>
<feMorphology radius="1" operator="dilate" in="SourceAlpha" result="effect1_dropShadow_17_2121"/>
<feOffset dy="3"/>
<feGaussianBlur stdDeviation="3"/>
<feComposite in2="hardAlpha" operator="out"/>
<feColorMatrix type="matrix" values="0 0 0 0 0 0 0 0 0 0 0 0 0 0 0 0 0 0 0.05 0"/>
<feBlend mode="normal" in2="BackgroundImageFix" result="effect1_dropShadow_17_2121"/>
<feBlend mode="normal" in="SourceGraphic" in2="effect1_dropShadow_17_2121" result="shape"/>
</filter>
<filter id="filter3_d_17_2121" x="18.2401" y="337.634" width="323.873" height="54" filterUnits="userSpaceOnUse" color-interpolation-filters="sRGB">
<feFlood flood-opacity="0" result="BackgroundImageFix"/>
<feColorMatrix in="SourceAlpha" type="matrix" values="0 0 0 0 0 0 0 0 0 0 0 0 0 0 0 0 0 0 127 0" result="hardAlpha"/>
<feMorphology radius="1" operator="dilate" in="SourceAlpha" result="effect1_dropShadow_17_2121"/>
<feOffset dy="3"/>
<feGaussianBlur stdDeviation="3"/>
<feComposite in2="hardAlpha" operator="out"/>
<feColorMatrix type="matrix" values="0 0 0 0 0 0 0 0 0 0 0 0 0 0 0 0 0 0 0.05 0"/>
<feBlend mode="normal" in2="BackgroundImageFix" result="effect1_dropShadow_17_2121"/>
<feBlend mode="normal" in="SourceGraphic" in2="effect1_dropShadow_17_2121" result="shape"/>
</filter>
<filter id="filter4_d_17_2121" x="17.887" y="218.396" width="323.873" height="54" filterUnits="userSpaceOnUse" color-interpolation-filters="sRGB">
<feFlood flood-opacity="0" result="BackgroundImageFix"/>
<feColorMatrix in="SourceAlpha" type="matrix" values="0 0 0 0 0 0 0 0 0 0 0 0 0 0 0 0 0 0 127 0" result="hardAlpha"/>
<feMorphology radius="1" operator="dilate" in="SourceAlpha" result="effect1_dropShadow_17_2121"/>
<feOffset dy="3"/>
<feGaussianBlur stdDeviation="3"/>
<feComposite in2="hardAlpha" operator="out"/>
<feColorMatrix type="matrix" values="0 0 0 0 0 0 0 0 0 0 0 0 0 0 0 0 0 0 0.05 0"/>
<feBlend mode="normal" in2="BackgroundImageFix" result="effect1_dropShadow_17_2121"/>
<feBlend mode="normal" in="SourceGraphic" in2="effect1_dropShadow_17_2121" result="shape"/>
</filter>
<filter id="filter5_d_17_2121" x="21.2401" y="414.467" width="317.686" height="43" filterUnits="userSpaceOnUse" color-interpolation-filters="sRGB">
<feFlood flood-opacity="0" result="BackgroundImageFix"/>
<feColorMatrix in="SourceAlpha" type="matrix" values="0 0 0 0 0 0 0 0 0 0 0 0 0 0 0 0 0 0 127 0" result="hardAlpha"/>
<feOffset dy="3"/>
<feGaussianBlur stdDeviation="2"/>
<feComposite in2="hardAlpha" operator="out"/>
<feColorMatrix type="matrix" values="0 0 0 0 0 0 0 0 0 0 0 0 0 0 0 0 0 0 0.15 0"/>
<feBlend mode="normal" in2="BackgroundImageFix" result="effect1_dropShadow_17_2121"/>
<feBlend mode="normal" in="SourceGraphic" in2="effect1_dropShadow_17_2121" result="shape"/>
</filter>
<filter id="filter6_dd_17_2121" x="103" y="614" width="161" height="37" filterUnits="userSpaceOnUse" color-interpolation-filters="sRGB">
<feFlood flood-opacity="0" result="BackgroundImageFix"/>
<feColorMatrix in="SourceAlpha" type="matrix" values="0 0 0 0 0 0 0 0 0 0 0 0 0 0 0 0 0 0 127 0" result="hardAlpha"/>
<feOffset dy="1"/>
<feGaussianBlur stdDeviation="0.5"/>
<feColorMatrix type="matrix" values="0 0 0 0 0 0 0 0 0 0 0 0 0 0 0 0 0 0 0.168 0"/>
<feBlend mode="normal" in2="BackgroundImageFix" result="effect1_dropShadow_17_2121"/>
<feColorMatrix in="SourceAlpha" type="matrix" values="0 0 0 0 0 0 0 0 0 0 0 0 0 0 0 0 0 0 127 0" result="hardAlpha"/>
<feOffset/>
<feGaussianBlur stdDeviation="0.5"/>
<feColorMatrix type="matrix" values="0 0 0 0 0 0 0 0 0 0 0 0 0 0 0 0 0 0 0.084 0"/>
<feBlend mode="normal" in2="effect1_dropShadow_17_2121" result="effect2_dropShadow_17_2121"/>
<feBlend mode="normal" in="SourceGraphic" in2="effect2_dropShadow_17_2121" result="shape"/>
</filter>
<clipPath id="clip0_17_2121">
<rect width="360" height="800" fill="white"/>
</clipPath>
</defs>
</svg>
